# Blender 5.2.0 LTS
# www.blender.org
mtllib door.mtl
o Cube
v -1.000000 0.000000 0.000000
v 0.950000 0.700000 0.107500
v -1.000000 2.000000 0.000000
v 0.950000 0.700000 0.392500
v 1.000000 -0.000000 -0.000000
v 0.931746 0.504910 0.107500
v 0.931746 0.504910 0.392500
v 1.000000 2.000000 -0.000000
v 0.877686 0.317317 0.107500
v -1.000000 0.000000 0.500000
v 0.877686 0.317317 0.392500
v -1.000000 2.000000 0.500000
v 0.789896 0.144430 0.107500
v 1.000000 -0.000000 0.500000
v 0.789896 0.144430 0.392500
v 1.000000 2.000000 0.500000
v -0.789896 0.144430 0.107500
v -0.950000 0.700000 0.000000
v -0.789896 0.144430 0.392500
v -0.931746 0.504910 0.000000
v -0.877686 0.317317 0.107500
v -0.931746 0.895090 0.000000
v -0.877686 0.317317 0.392500
v -0.877686 0.317317 0.000000
v -0.789896 1.255570 0.000000
v -0.931746 0.504910 0.107500
v -0.931746 0.504910 0.392500
v -0.877686 1.082683 0.000000
v -0.950000 0.700000 0.107500
v -0.671751 1.407107 0.000000
v -0.527792 1.531470 0.000000
v -0.950000 0.700000 0.392500
v -0.185336 1.680785 0.000000
v -0.931746 0.895090 0.107500
v -0.931746 0.895090 0.392500
v -0.363549 1.623879 0.000000
v 0.185336 1.680785 -0.000000
v -0.877686 1.082683 0.107500
v -0.877686 1.082683 0.392500
v 0.527792 1.531470 -0.000000
v 0.363549 1.623879 -0.000000
v -0.789896 1.255570 0.107500
v -0.789896 1.255570 0.392500
v 0.000000 1.700000 -0.000000
v -0.671751 1.407107 0.107500
v -0.677292 0.000000 0.000000
v -0.671751 1.407107 0.392500
v -0.789896 0.144430 0.000000
v 0.671751 1.407107 -0.000000
v -0.527792 1.531470 0.107500
v -0.527792 1.531470 0.392500
v 0.677292 -0.000000 -0.000000
v 0.877686 0.317317 -0.000000
v -0.363549 1.623879 0.107500
v 0.877686 1.082683 -0.000000
v -0.363549 1.623879 0.392500
v -0.185336 1.680785 0.107500
v 0.950000 0.700000 -0.000000
v 0.931746 0.504910 -0.000000
v -0.185336 1.680785 0.392500
v 0.000000 1.700000 0.107500
v 0.931746 0.895090 -0.000000
v 0.000000 1.700000 0.392500
v 0.789896 1.255570 -0.000000
v 0.789896 0.144430 -0.000000
v 0.185336 1.680785 0.107500
v 0.185336 1.680785 0.392500
v -0.527792 1.531470 0.500000
v -0.185336 1.680785 0.500000
v 0.363549 1.623879 0.107500
v -0.363549 1.623879 0.500000
v 0.363549 1.623879 0.392500
v 0.185336 1.680785 0.500000
v 0.527792 1.531470 0.107500
v 0.527792 1.531470 0.392500
v 0.527792 1.531470 0.500000
v 0.671751 1.407107 0.107500
v 0.363549 1.623879 0.500000
v 0.671751 1.407107 0.392500
v 0.000000 1.700000 0.500000
v 0.789896 1.255570 0.107500
v 0.789896 1.255570 0.500000
v 0.789896 1.255570 0.392500
v 0.950000 0.700000 0.500000
v 0.931746 0.504910 0.500000
v 0.877686 1.082683 0.107500
v 0.877686 1.082683 0.392500
v 0.931746 0.895090 0.500000
v 0.877686 0.317317 0.500000
v 0.931746 0.895090 0.107500
v 0.877686 1.082683 0.500000
v 0.931746 0.895090 0.392500
v 0.671751 1.407107 0.500000
v 0.677292 -0.000000 0.392500
v 0.677292 -0.000000 0.107500
v -0.950000 0.700000 0.500000
v -0.677292 0.000000 0.392500
v -0.931746 0.504910 0.500000
v -0.877686 0.317317 0.500000
v -0.677292 0.000000 0.107500
v -0.877686 1.082683 0.500000
v -0.931746 0.895090 0.500000
v 0.789896 0.144430 0.500000
v 0.677292 -0.000000 0.500000
v -0.677292 0.000000 0.500000
v -0.671751 1.407107 0.500000
v -0.789896 0.144430 0.500000
v -0.789896 1.255570 0.500000
v -0.833791 0.230873 0.000000
v -0.733594 0.072215 0.000000
v 0.733594 0.072215 -0.000000
v 0.833791 0.230873 -0.000000
v 0.904716 0.411113 -0.000000
v 0.940873 0.602455 -0.000000
v 0.940873 0.797545 -0.000000
v 0.904716 0.988887 -0.000000
v 0.833791 1.169127 -0.000000
v 0.730824 1.331339 -0.000000
v 0.599772 1.469288 -0.000000
v 0.445671 1.577675 -0.000000
v 0.274443 1.652332 -0.000000
v 0.092668 1.690393 -0.000000
v -0.092668 1.690393 0.000000
v -0.274443 1.652332 0.000000
v -0.445671 1.577675 0.000000
v -0.599772 1.469288 0.000000
v -0.730824 1.331339 0.000000
v -0.833791 1.169127 0.000000
v -0.904716 0.988887 0.000000
v -0.940873 0.797545 0.000000
v -0.940873 0.602455 0.000000
v -0.904716 0.411113 0.000000
v 1.000000 1.000000 0.500000
v 0.833791 0.230873 0.500000
v 0.733594 0.072215 0.500000
v 0.838646 -0.000000 0.500000
v 0.000000 2.000000 0.500000
v -1.000000 1.000000 0.500000
v -0.838646 0.000000 0.500000
v -0.733594 0.072215 0.500000
v -0.833791 0.230873 0.500000
v -0.904716 0.411113 0.500000
v -0.940873 0.602455 0.500000
v -0.940873 0.797545 0.500000
v -0.904716 0.988887 0.500000
v -0.833791 1.169127 0.500000
v -0.730824 1.331339 0.500000
v -0.599772 1.469288 0.500000
v -0.445671 1.577675 0.500000
v -0.274443 1.652332 0.500000
v -0.092668 1.690393 0.500000
v 0.092668 1.690393 0.500000
v 0.274443 1.652332 0.500000
v 0.445671 1.577675 0.500000
v 0.599772 1.469288 0.500000
v 0.730824 1.331339 0.500000
v 0.833791 1.169127 0.500000
v 0.904716 0.988887 0.500000
v 0.940873 0.797545 0.500000
v 0.940873 0.602455 0.500000
v 0.904716 0.411113 0.500000
v -0.677292 0.000000 0.250000
v 0.677292 -0.000000 0.250000
v 0.940873 0.602455 0.392500
v 0.931746 0.504910 0.446250
v 0.950000 0.700000 0.446250
v 0.940873 0.602455 0.107500
v 0.950000 0.700000 0.053750
v 0.931746 0.504910 0.053750
v 0.904716 0.411113 0.392500
v 0.877686 0.317317 0.446250
v 0.904716 0.411113 0.107500
v 0.877686 0.317317 0.053750
v 0.833791 0.230873 0.392500
v 0.789896 0.144430 0.446250
v 0.833791 0.230873 0.107500
v 0.789896 0.144430 0.053750
v 0.789896 0.144430 0.250000
v -0.789896 0.144430 0.053750
v -0.789896 0.144430 0.250000
v -0.789896 0.144430 0.446250
v -0.877686 0.317317 0.446250
v -0.833791 0.230873 0.392500
v -0.833791 0.230873 0.107500
v -0.877686 0.317317 0.053750
v -0.931746 0.504910 0.446250
v -0.904716 0.411113 0.392500
v -0.904716 0.411113 0.107500
v -0.931746 0.504910 0.053750
v -0.950000 0.700000 0.446250
v -0.940873 0.602455 0.392500
v -0.940873 0.602455 0.107500
v -0.950000 0.700000 0.053750
v -0.931746 0.895090 0.446250
v -0.940873 0.797545 0.392500
v -0.940873 0.797545 0.107500
v -0.931746 0.895090 0.053750
v -0.877686 1.082683 0.446250
v -0.904716 0.988887 0.392500
v -0.904716 0.988887 0.107500
v -0.877686 1.082683 0.053750
v -0.789896 1.255570 0.446250
v -0.833791 1.169127 0.392500
v -0.833791 1.169127 0.107500
v -0.789896 1.255570 0.053750
v -0.671751 1.407107 0.446250
v -0.730824 1.331339 0.392500
v -0.730824 1.331339 0.107500
v -0.671751 1.407107 0.053750
v -0.527792 1.531470 0.446250
v -0.599772 1.469288 0.392500
v -0.599772 1.469288 0.107500
v -0.527792 1.531470 0.053750
v -0.363549 1.623879 0.446250
v -0.445671 1.577675 0.392500
v -0.445671 1.577675 0.107500
v -0.363549 1.623879 0.053750
v -0.185336 1.680785 0.446250
v -0.274443 1.652332 0.392500
v -0.274443 1.652332 0.107500
v -0.185336 1.680785 0.053750
v 0.000000 1.700000 0.446250
v -0.092668 1.690393 0.392500
v -0.092668 1.690393 0.107500
v 0.000000 1.700000 0.053750
v 0.185336 1.680785 0.446250
v 0.092668 1.690393 0.392500
v 0.092668 1.690393 0.107500
v 0.185336 1.680785 0.053750
v 0.363549 1.623879 0.446250
v 0.274443 1.652332 0.392500
v 0.274443 1.652332 0.107500
v 0.363549 1.623879 0.053750
v 0.527792 1.531470 0.446250
v 0.445671 1.577675 0.392500
v 0.445671 1.577675 0.107500
v 0.527792 1.531470 0.053750
v 0.671751 1.407107 0.446250
v 0.599772 1.469288 0.392500
v 0.599772 1.469288 0.107500
v 0.671751 1.407107 0.053750
v 0.730824 1.331339 0.392500
v 0.789896 1.255570 0.446250
v 0.730824 1.331339 0.107500
v 0.789896 1.255570 0.053750
v 0.833791 1.169127 0.392500
v 0.877686 1.082683 0.446250
v 0.833791 1.169127 0.107500
v 0.877686 1.082683 0.053750
v 0.904716 0.988887 0.392500
v 0.931746 0.895090 0.446250
v 0.904716 0.988887 0.107500
v 0.931746 0.895090 0.053750
v 0.940873 0.797545 0.392500
v 0.940873 0.797545 0.107500
v 0.677292 -0.000000 0.250000
v -0.677292 0.000000 0.250000
v 0.000000 0.000000 0.392500
v 0.000000 0.000000 0.107500
vn -0.0000 -0.0000 -1.0000
vn 1.0000 -0.0000 -0.0000
vn -0.0000 -0.0000 1.0000
vn -1.0000 -0.0000 -0.0000
vn -0.0000 -1.0000 -0.0000
vn -0.0000 1.0000 -0.0000
vn -0.7886 0.6149 -0.0000
vn 0.7886 0.6149 -0.0000
vn 0.7886 -0.6149 -0.0000
vn -0.7886 -0.6149 -0.0000
vn 0.8916 0.4528 -0.0000
vn -0.9609 -0.2769 -0.0000
vn -0.8916 -0.4528 -0.0000
vn -0.8916 0.4528 -0.0000
vn -0.6537 -0.7567 -0.0000
vn -0.4904 -0.8715 -0.0000
vn -0.4903 -0.8715 -0.0000
vn -0.1031 -0.9947 -0.0000
vn 0.1031 -0.9947 -0.0000
vn -0.3042 -0.9526 -0.0000
vn 0.3042 -0.9526 -0.0000
vn 0.4903 -0.8715 -0.0000
vn 0.4904 -0.8715 -0.0000
vn 0.6537 -0.7567 -0.0000
vn 0.8916 -0.4528 -0.0000
vn 0.9609 -0.2769 -0.0000
vn 0.9957 -0.0932 -0.0000
vn 0.9957 0.0932 -0.0000
vn 0.9609 0.2769 -0.0000
vn -0.9609 0.2769 -0.0000
vn -0.9957 0.0932 -0.0000
vn -0.9957 -0.0932 -0.0000
vt 0.000000 1.000000
vt 0.226562 0.843750
vt 0.250000 0.851562
vt 0.125000 1.000000
vt 0.000000 0.500000
vt 0.320312 0.828125
vt 0.339844 0.812500
vt 0.250000 1.000000
vt 0.125000 0.500000
vt 0.000000 0.000000
vt 0.125000 0.000000
vt 0.125000 0.078125
vt 0.062500 0.164062
vt 0.027344 0.500000
vt 0.097656 0.500000
vt 0.062500 0.835938
vt 0.191406 0.140625
vt 0.167969 0.140625
vt 0.191406 0.187500
vt 0.214844 0.382812
vt 0.222656 0.382812
vt 0.230469 0.351562
vt 0.281250 0.578125
vt 0.285156 0.570312
vt 0.027344 0.898438
vt 0.062500 0.898438
vt 0.859375 0.343750
vt 0.847656 0.390625
vt 0.750000 0.000000
vt 0.859375 0.843750
vt 0.847656 0.890625
vt 0.750000 0.500000
vt 0.355469 0.585938
vt 0.351562 0.578125
vt 0.347656 0.570312
vt 0.062500 0.101562
vt 0.027344 0.164062
vt 0.027344 0.101562
vt 0.273438 0.617188
vt 0.273438 0.625000
vt 0.277344 0.632812
vt 0.281250 0.640625
vt 0.277344 0.585938
vt 0.285156 0.648438
vt 0.289062 0.648438
vt 0.292969 0.648438
vt 0.296875 0.656250
vt 0.300781 0.656250
vt 0.308594 0.656250
vt 0.312500 0.664062
vt 0.316406 0.664062
vt 0.320312 0.664062
vt 0.324219 0.656250
vt 0.304688 0.656250
vt 0.328125 0.656250
vt 0.332031 0.656250
vt 0.335938 0.656250
vt 0.339844 0.648438
vt 0.343750 0.648438
vt 0.347656 0.648438
vt 0.351562 0.640625
vt 0.000000 0.835938
vt 0.355469 0.632812
vt 0.359375 0.625000
vt 0.359375 0.617188
vt 0.359375 0.609375
vt 0.359375 0.601562
vt 0.359375 0.593750
vt 0.273438 0.593750
vt 0.273438 0.601562
vt 0.273438 0.609375
vt 0.324219 0.382812
vt 0.320312 0.328125
vt 0.316406 0.281250
vt 0.316406 0.476562
vt 0.320312 0.429688
vt 0.433594 0.039062
vt 0.417969 0.000000
vt 0.500000 0.000000
vt 0.082031 0.000000
vt 0.066406 0.039062
vt 0.050781 0.070312
vt 0.449219 0.070312
vt 0.457031 0.117188
vt 0.042969 0.117188
vt 0.031250 0.156250
vt 0.468750 0.156250
vt 0.476562 0.203125
vt 0.023438 0.203125
vt 0.015625 0.250000
vt 0.484375 0.250000
vt 0.484375 0.304688
vt 0.015625 0.304688
vt 0.011719 0.351562
vt 0.488281 0.351562
vt 0.500000 1.000000
vt 0.015625 0.398438
vt 0.484375 0.398438
vt 0.484375 0.445312
vt 0.015625 0.445312
vt 0.023438 0.492188
vt 0.476562 0.492188
vt 0.468750 0.539062
vt 0.031250 0.539062
vt 0.042969 0.585938
vt 0.457031 0.585938
vt 0.417969 0.703125
vt 0.433594 0.664062
vt 0.449219 0.625000
vt 0.050781 0.625000
vt 0.066406 0.664062
vt 0.082031 0.703125
vt 0.398438 0.734375
vt 0.101562 0.734375
vt 0.117188 0.765625
vt 0.136719 0.789062
vt 0.160156 0.812500
vt 0.382812 0.765625
vt 0.363281 0.789062
vt 0.179688 0.828125
vt 0.296875 0.843750
vt 0.203125 0.843750
vt 0.273438 0.843750
vt 0.156250 0.140625
vt 0.148438 0.140625
vt 0.148438 0.164062
vt 0.148438 0.187500
vt 0.234375 0.187500
vt 0.214844 0.140625
vt 0.234375 0.164062
vt 0.226562 0.140625
vt 0.234375 0.140625
vt 0.195312 0.351562
vt 0.160156 0.351562
vt 0.175781 0.382812
vt 0.160156 0.367188
vt 0.167969 0.382812
vt 0.160156 0.382812
vt 0.195312 0.382812
vt 0.230469 0.382812
vt 0.230469 0.367188
vt 0.761719 1.000000
vt 0.750000 1.000000
vt 0.738281 1.000000
vt 0.726562 1.000000
vt 0.714844 0.984375
vt 0.703125 0.976562
vt 0.691406 0.968750
vt 0.679688 0.953125
vt 0.671875 0.937500
vt 0.660156 0.914062
vt 0.652344 0.890625
vt 0.644531 0.875000
vt 0.640625 0.843750
vt 0.632812 0.820312
vt 0.632812 0.789062
vt 0.628906 0.765625
vt 0.625000 0.734375
vt 0.625000 0.710938
vt 0.625000 0.679688
vt 0.628906 0.648438
vt 0.632812 0.625000
vt 0.632812 0.593750
vt 0.640625 0.570312
vt 0.644531 0.546875
vt 0.660156 0.500000
vt 0.839844 0.500000
vt 0.855469 0.546875
vt 0.773438 1.000000
vt 0.785156 0.984375
vt 0.796875 0.976562
vt 0.808594 0.968750
vt 0.828125 0.937500
vt 0.820312 0.953125
vt 0.859375 0.570312
vt 0.867188 0.625000
vt 0.867188 0.593750
vt 0.871094 0.648438
vt 0.875000 0.679688
vt 0.875000 0.710938
vt 0.875000 0.734375
vt 0.871094 0.765625
vt 0.867188 0.789062
vt 0.867188 0.820312
vt 0.839844 0.914062
vt 0.855469 0.875000
vt 0.125000 0.835938
vt 0.125000 0.921875
vt 0.460938 0.000000
vt 0.039062 0.000000
vt 0.500000 0.500000
vt 0.125000 0.164062
vt 0.000000 0.164062
vt 0.097656 0.164062
vt 0.097656 0.835938
vt 0.027344 0.835938
vt 0.761719 0.500000
vt 0.738281 0.500000
vt 0.726562 0.492188
vt 0.714844 0.484375
vt 0.703125 0.476562
vt 0.691406 0.460938
vt 0.679688 0.453125
vt 0.671875 0.429688
vt 0.664062 0.414062
vt 0.656250 0.390625
vt 0.648438 0.367188
vt 0.640625 0.343750
vt 0.636719 0.320312
vt 0.632812 0.289062
vt 0.628906 0.265625
vt 0.628906 0.234375
vt 0.625000 0.203125
vt 0.628906 0.179688
vt 0.628906 0.148438
vt 0.632812 0.117188
vt 0.636719 0.093750
vt 0.640625 0.070312
vt 0.648438 0.039062
vt 0.660156 0.000000
vt 0.839844 0.000000
vt 0.855469 0.039062
vt 0.773438 0.492188
vt 0.785156 0.484375
vt 0.796875 0.476562
vt 0.808594 0.460938
vt 0.828125 0.429688
vt 0.820312 0.453125
vt 0.859375 0.070312
vt 0.871094 0.117188
vt 0.867188 0.093750
vt 0.875000 0.148438
vt 0.875000 0.179688
vt 0.875000 0.203125
vt 0.875000 0.234375
vt 0.875000 0.265625
vt 0.871094 0.289062
vt 0.867188 0.320312
vt 0.839844 0.414062
vt 0.855469 0.367188
s 1
usemtl Material.001
f 8/1/1 122/2/1 44/3/1
f 8/4/2 16/1/2 133/5/2
f 153/6/3 78/7/3 137/8/3
f 138/9/4 3/1/4 1/10/4
f 14/11/5 136/12/5 163/13/5
f 259/14/5 258/15/5 257/16/5
f 3/10/6 12/11/6 137/9/6
f 178/17/7 13/18/7 163/19/7
f 19/20/8 181/21/8 105/22/8
f 15/23/9 256/24/9 178/23/9
f 17/25/10 257/16/10 180/26/10
f 246/27/3 242/28/3 258/29/3
f 204/30/1 208/31/1 259/32/1
f 185/33/11 184/33/11 179/34/11
f 180/34/10 97/35/10 19/34/10
f 178/36/9 95/37/9 13/38/9
f 253/39/12 252/40/12 249/41/12
f 249/41/13 248/41/13 245/42/13
f 171/43/14 174/43/14 175/23/14
f 245/42/10 244/42/10 241/44/10
f 247/41/12 250/40/12 251/39/12
f 241/44/15 240/45/15 237/46/15
f 243/42/13 246/41/13 247/41/13
f 237/46/16 236/47/16 233/48/17
f 238/44/10 242/42/10 243/42/10
f 229/49/18 228/50/18 225/51/18
f 238/44/15 93/44/15 155/45/15
f 225/51/19 224/52/19 221/53/19
f 230/48/17 234/46/16 154/47/16
f 233/48/20 232/54/20 229/49/20
f 231/54/20 230/48/20 226/49/20
f 221/53/21 220/55/21 217/56/21
f 222/51/18 226/49/18 152/50/18
f 217/56/22 216/57/23 213/58/23
f 218/53/19 222/51/19 151/52/19
f 213/58/24 212/59/24 209/60/24
f 214/56/21 218/53/21 150/55/21
f 209/60/9 208/61/9 205/61/9
f 210/58/23 214/56/22 149/57/23
f 1/1/5 46/62/5 162/16/5
f 206/60/24 210/58/24 148/59/24
f 181/34/11 182/33/11 141/33/11
f 202/61/9 206/60/9 147/61/9
f 205/61/25 204/63/25 201/63/25
f 198/63/25 202/61/25 146/63/25
f 201/63/26 200/64/26 197/65/26
f 194/65/26 198/63/26 145/64/26
f 197/65/27 196/65/27 193/66/27
f 190/66/27 194/65/27 144/65/27
f 193/66/28 192/67/28 189/67/28
f 186/67/28 190/66/28 143/67/28
f 189/67/29 188/68/29 185/33/29
f 182/33/29 186/67/29 142/68/29
f 173/43/30 172/69/30 169/70/30
f 165/70/30 170/69/30 171/43/30
f 169/70/31 167/70/31 168/71/31
f 166/72/31 164/73/31 165/74/31
f 168/71/32 255/39/32 253/39/32
f 251/75/32 254/76/32 166/72/32
f 177/23/14 176/43/14 173/43/14
f 110/77/1 46/78/1 1/79/1
f 5/10/1 52/80/1 111/81/1
f 5/10/1 111/81/1 65/82/1
f 48/83/1 110/77/1 1/79/1
f 109/84/1 48/83/1 1/79/1
f 5/10/1 65/82/1 112/85/1
f 5/10/1 112/85/1 53/86/1
f 24/87/1 109/84/1 1/79/1
f 132/88/1 24/87/1 1/79/1
f 5/10/1 53/86/1 113/89/1
f 5/10/1 113/89/1 59/90/1
f 20/91/1 132/88/1 1/79/1
f 131/92/1 20/91/1 1/79/1
f 5/10/1 59/90/1 114/93/1
f 5/10/1 114/93/1 58/94/1
f 18/95/1 131/92/1 1/79/1
f 18/95/1 1/79/1 3/96/1
f 8/1/1 5/10/1 58/94/1
f 8/1/1 58/94/1 115/97/1
f 130/98/1 18/95/1 3/96/1
f 22/99/1 130/98/1 3/96/1
f 8/1/1 115/97/1 62/100/1
f 8/1/1 62/100/1 116/101/1
f 129/102/1 22/99/1 3/96/1
f 28/103/1 129/102/1 3/96/1
f 8/1/1 116/101/1 55/104/1
f 8/1/1 55/104/1 117/105/1
f 128/106/1 28/103/1 3/96/1
f 30/107/1 127/108/1 3/96/1
f 127/108/1 25/109/1 3/96/1
f 25/109/1 128/106/1 3/96/1
f 8/1/1 117/105/1 64/110/1
f 64/110/1 118/111/1 8/1/1
f 118/111/1 49/112/1 8/1/1
f 126/113/1 30/107/1 3/96/1
f 8/1/1 49/112/1 119/114/1
f 40/115/1 120/116/1 8/1/1
f 120/116/1 41/117/1 8/1/1
f 8/1/1 119/114/1 40/115/1
f 31/118/1 126/113/1 3/96/1
f 36/7/1 125/119/1 3/96/1
f 125/119/1 31/118/1 3/96/1
f 8/1/1 41/117/1 121/120/1
f 124/6/1 36/7/1 3/96/1
f 33/121/1 124/6/1 3/96/1
f 8/1/1 121/120/1 37/122/1
f 8/1/1 37/122/1 122/2/1
f 33/121/1 3/96/1 123/123/1
f 3/96/1 8/1/1 44/3/1
f 123/123/1 3/96/1 44/3/1
f 14/10/2 5/11/2 133/5/2
f 5/11/2 8/4/2 133/5/2
f 1/10/4 10/11/4 138/9/4
f 138/9/4 12/4/4 3/1/4
f 137/9/6 16/4/6 8/1/6
f 8/1/6 3/10/6 137/9/6
f 177/124/7 65/125/7 111/126/7
f 111/126/7 52/127/7 177/124/7
f 52/127/7 163/19/7 13/18/7
f 163/19/7 104/128/7 15/129/7
f 104/128/7 135/130/7 175/131/7
f 15/129/7 104/128/7 175/131/7
f 135/130/7 103/132/7 175/131/7
f 52/127/7 13/18/7 177/124/7
f 178/17/7 163/19/7 15/129/7
f 162/133/8 46/134/8 17/135/8
f 46/134/8 110/136/8 179/137/8
f 17/135/8 46/134/8 179/137/8
f 110/136/8 48/138/8 179/137/8
f 105/22/8 162/133/8 19/20/8
f 19/20/8 162/133/8 180/139/8
f 181/21/8 107/140/8 140/141/8
f 140/141/8 105/22/8 181/21/8
f 17/135/8 180/139/8 162/133/8
f 224/142/1 61/143/1 228/144/1
f 228/144/1 66/145/1 232/146/1
f 232/146/1 70/147/1 236/148/1
f 236/148/1 74/149/1 240/150/1
f 240/150/1 77/151/1 244/152/1
f 244/152/1 81/153/1 248/154/1
f 248/154/1 86/155/1 252/156/1
f 252/156/1 90/157/1 255/158/1
f 255/158/1 2/159/1 167/160/1
f 167/160/1 6/161/1 172/162/1
f 172/162/1 9/163/1 176/164/1
f 176/164/1 13/165/1 259/32/1
f 13/165/1 95/166/1 259/32/1
f 259/32/1 100/167/1 17/168/1
f 167/160/1 172/162/1 259/32/1
f 172/162/1 176/164/1 259/32/1
f 252/156/1 255/158/1 259/32/1
f 255/158/1 167/160/1 259/32/1
f 244/152/1 248/154/1 259/32/1
f 248/154/1 252/156/1 259/32/1
f 236/148/1 240/150/1 259/32/1
f 240/150/1 244/152/1 259/32/1
f 228/144/1 232/146/1 259/32/1
f 232/146/1 236/148/1 259/32/1
f 57/169/1 224/142/1 220/170/1
f 224/142/1 228/144/1 259/32/1
f 220/170/1 224/142/1 259/32/1
f 54/171/1 220/170/1 216/172/1
f 216/172/1 220/170/1 259/32/1
f 212/173/1 50/174/1 216/172/1
f 259/32/1 17/168/1 184/175/1
f 188/176/1 184/175/1 21/177/1
f 259/32/1 184/175/1 188/176/1
f 188/176/1 26/178/1 192/179/1
f 259/32/1 188/176/1 192/179/1
f 192/179/1 29/180/1 196/181/1
f 259/32/1 192/179/1 196/181/1
f 196/181/1 34/182/1 200/183/1
f 200/183/1 38/184/1 204/30/1
f 196/181/1 200/183/1 259/32/1
f 45/185/1 212/173/1 208/31/1
f 212/173/1 216/172/1 259/32/1
f 208/31/1 212/173/1 259/32/1
f 204/30/1 42/186/1 208/31/1
f 200/183/1 204/30/1 259/32/1
f 109/33/11 24/33/11 185/33/11
f 185/33/11 21/33/11 184/33/11
f 184/33/11 17/34/11 179/34/11
f 179/34/11 48/34/11 109/33/11
f 109/33/11 185/33/11 179/34/11
f 178/36/9 256/13/9 95/37/9
f 116/40/12 62/39/12 253/39/12
f 253/39/12 90/39/12 252/40/12
f 252/40/12 86/41/12 249/41/12
f 249/41/12 55/41/12 116/40/12
f 116/40/12 253/39/12 249/41/12
f 118/42/10 64/42/10 245/42/10
f 245/42/10 81/42/10 244/42/10
f 244/42/10 77/44/10 241/44/10
f 241/44/10 49/44/10 118/42/10
f 118/42/10 245/42/10 241/44/10
f 122/50/18 37/49/18 229/49/18
f 229/49/18 66/49/18 228/50/18
f 228/50/18 61/51/18 225/51/18
f 225/51/18 44/51/18 122/50/18
f 122/50/18 229/49/18 225/51/18
f 123/52/19 44/51/19 225/51/19
f 225/51/19 61/51/19 224/52/19
f 224/52/19 57/53/19 221/53/19
f 221/53/19 33/53/19 123/52/19
f 123/52/19 225/51/19 221/53/19
f 121/54/20 41/48/20 233/48/20
f 233/48/20 70/48/20 232/54/20
f 232/54/20 66/49/20 229/49/20
f 229/49/20 37/49/20 121/54/20
f 121/54/20 233/48/20 229/49/20
f 162/16/5 105/187/5 139/188/5
f 139/188/5 10/4/5 162/16/5
f 10/4/5 1/1/5 162/16/5
f 128/63/25 25/61/25 205/61/25
f 205/61/25 42/61/25 204/63/25
f 204/63/25 38/63/25 201/63/25
f 201/63/25 28/63/25 128/63/25
f 128/63/25 205/61/25 201/63/25
f 129/64/26 28/63/26 201/63/26
f 201/63/26 38/63/26 200/64/26
f 200/64/26 34/65/26 197/65/26
f 197/65/26 22/65/26 129/64/26
f 129/64/26 201/63/26 197/65/26
f 130/65/27 22/65/27 197/65/27
f 197/65/27 34/65/27 196/65/27
f 196/65/27 29/66/27 193/66/27
f 193/66/27 18/66/27 130/65/27
f 130/65/27 197/65/27 193/66/27
f 131/67/28 18/66/28 193/66/28
f 193/66/28 29/66/28 192/67/28
f 192/67/28 26/67/28 189/67/28
f 189/67/28 20/67/28 131/67/28
f 131/67/28 193/66/28 189/67/28
f 132/68/29 20/67/29 189/67/29
f 189/67/29 26/67/29 188/68/29
f 188/68/29 21/33/29 185/33/29
f 185/33/29 24/33/29 132/68/29
f 132/68/29 189/67/29 185/33/29
f 113/69/30 53/43/30 173/43/30
f 173/43/30 9/43/30 172/69/30
f 172/69/30 6/70/30 169/70/30
f 169/70/30 59/70/30 113/69/30
f 113/69/30 173/43/30 169/70/30
f 114/70/31 59/70/31 169/70/31
f 169/70/31 6/70/31 167/70/31
f 167/70/31 2/71/31 168/71/31
f 168/71/31 58/71/31 114/70/31
f 114/70/31 169/70/31 168/71/31
f 115/39/32 58/71/32 168/71/32
f 168/71/32 2/71/32 255/39/32
f 255/39/32 90/39/32 253/39/32
f 253/39/32 62/39/32 115/39/32
f 115/39/32 168/71/32 253/39/32
f 112/43/14 65/23/14 177/23/14
f 177/23/14 13/23/14 176/43/14
f 176/43/14 9/43/14 173/43/14
f 173/43/14 53/43/14 112/43/14
f 112/43/14 177/23/14 173/43/14
f 135/77/3 104/78/3 136/189/3
f 139/190/3 105/80/3 140/81/3
f 139/190/3 140/81/3 107/82/3
f 135/77/3 136/189/3 103/83/3
f 136/189/3 14/79/3 103/83/3
f 134/84/3 103/83/3 14/79/3
f 89/87/3 134/84/3 14/79/3
f 161/88/3 89/87/3 14/79/3
f 85/91/3 161/88/3 14/79/3
f 85/91/3 14/79/3 160/92/3
f 14/79/3 133/191/3 84/95/3
f 160/92/3 14/79/3 84/95/3
f 10/10/3 139/190/3 107/82/3
f 10/10/3 107/82/3 141/85/3
f 10/10/3 141/85/3 99/86/3
f 10/10/3 99/86/3 142/89/3
f 10/10/3 142/89/3 98/90/3
f 10/10/3 98/90/3 143/93/3
f 138/5/3 10/10/3 96/94/3
f 10/10/3 143/93/3 96/94/3
f 159/98/3 84/95/3 133/191/3
f 12/1/3 138/5/3 108/110/3
f 138/5/3 96/94/3 144/97/3
f 138/5/3 144/97/3 102/100/3
f 138/5/3 102/100/3 145/101/3
f 138/5/3 145/101/3 101/104/3
f 138/5/3 101/104/3 146/105/3
f 138/5/3 146/105/3 108/110/3
f 108/110/3 147/111/3 12/1/3
f 147/111/3 106/112/3 12/1/3
f 137/8/3 12/1/3 71/117/3
f 12/1/3 106/112/3 148/114/3
f 12/1/3 148/114/3 68/115/3
f 159/98/3 133/191/3 88/99/3
f 133/191/3 16/96/3 82/109/3
f 88/99/3 133/191/3 158/102/3
f 158/102/3 133/191/3 91/103/3
f 12/1/3 68/115/3 149/116/3
f 71/117/3 12/1/3 149/116/3
f 91/103/3 133/191/3 157/106/3
f 157/106/3 133/191/3 82/109/3
f 137/8/3 71/117/3 150/120/3
f 137/8/3 150/120/3 69/122/3
f 93/107/3 156/108/3 16/96/3
f 156/108/3 82/109/3 16/96/3
f 16/96/3 137/8/3 78/7/3
f 137/8/3 69/122/3 151/2/3
f 137/8/3 151/2/3 80/3/3
f 155/113/3 93/107/3 16/96/3
f 137/8/3 80/3/3 152/123/3
f 137/8/3 152/123/3 73/121/3
f 76/118/3 155/113/3 16/96/3
f 78/7/3 154/119/3 16/96/3
f 154/119/3 76/118/3 16/96/3
f 137/8/3 73/121/3 153/6/3
f 136/12/5 104/192/5 163/13/5
f 163/13/5 52/193/5 5/10/5
f 5/10/5 14/11/5 163/13/5
f 259/14/5 95/37/5 256/13/5
f 256/13/5 94/194/5 258/15/5
f 258/15/5 97/195/5 257/16/5
f 257/16/5 100/196/5 259/14/5
f 259/14/5 256/13/5 258/15/5
f 15/23/9 94/24/9 256/24/9
f 17/25/10 100/196/10 257/16/10
f 227/197/3 63/32/3 223/198/3
f 223/198/3 60/199/3 219/200/3
f 219/200/3 56/201/3 215/202/3
f 215/202/3 51/203/3 211/204/3
f 211/204/3 47/205/3 207/206/3
f 207/206/3 43/207/3 203/208/3
f 203/208/3 39/209/3 199/210/3
f 199/210/3 35/211/3 195/212/3
f 195/212/3 32/213/3 191/214/3
f 191/214/3 27/215/3 187/216/3
f 187/216/3 23/217/3 183/218/3
f 183/218/3 19/219/3 258/29/3
f 19/219/3 97/220/3 258/29/3
f 258/29/3 94/221/3 15/222/3
f 191/214/3 187/216/3 258/29/3
f 187/216/3 183/218/3 258/29/3
f 199/210/3 195/212/3 258/29/3
f 195/212/3 191/214/3 258/29/3
f 207/206/3 203/208/3 258/29/3
f 203/208/3 199/210/3 258/29/3
f 215/202/3 211/204/3 258/29/3
f 211/204/3 207/206/3 258/29/3
f 223/198/3 219/200/3 258/29/3
f 219/200/3 215/202/3 258/29/3
f 67/223/3 227/197/3 231/224/3
f 227/197/3 223/198/3 258/29/3
f 231/224/3 227/197/3 258/29/3
f 72/225/3 231/224/3 235/226/3
f 235/226/3 231/224/3 258/29/3
f 239/227/3 75/228/3 235/226/3
f 258/29/3 15/222/3 174/229/3
f 170/230/3 174/229/3 11/231/3
f 258/29/3 174/229/3 170/230/3
f 170/230/3 7/232/3 164/233/3
f 258/29/3 170/230/3 164/233/3
f 164/233/3 4/234/3 254/235/3
f 258/29/3 164/233/3 254/235/3
f 254/235/3 92/236/3 250/237/3
f 250/237/3 87/238/3 246/27/3
f 254/235/3 250/237/3 258/29/3
f 79/239/3 239/227/3 242/28/3
f 239/227/3 235/226/3 258/29/3
f 242/28/3 239/227/3 258/29/3
f 246/27/3 83/240/3 242/28/3
f 250/237/3 246/27/3 258/29/3
f 180/34/10 257/35/10 97/35/10
f 117/41/13 55/41/13 249/41/13
f 249/41/13 86/41/13 248/41/13
f 248/41/13 81/42/13 245/42/13
f 245/42/13 64/42/13 117/41/13
f 117/41/13 249/41/13 245/42/13
f 134/43/14 89/43/14 171/43/14
f 171/43/14 11/43/14 174/43/14
f 174/43/14 15/23/14 175/23/14
f 175/23/14 103/23/14 134/43/14
f 134/43/14 171/43/14 175/23/14
f 158/40/12 91/41/12 247/41/12
f 247/41/12 87/41/12 250/40/12
f 250/40/12 92/39/12 251/39/12
f 251/39/12 88/39/12 158/40/12
f 158/40/12 247/41/12 251/39/12
f 119/45/15 49/44/15 241/44/15
f 241/44/15 77/44/15 240/45/15
f 240/45/15 74/46/15 237/46/15
f 237/46/15 40/46/15 119/45/15
f 119/45/15 241/44/15 237/46/15
f 157/41/13 82/42/13 243/42/13
f 243/42/13 83/42/13 246/41/13
f 246/41/13 87/41/13 247/41/13
f 247/41/13 91/41/13 157/41/13
f 157/41/13 243/42/13 247/41/13
f 120/47/16 40/46/16 237/46/16
f 237/46/16 74/46/16 236/47/16
f 236/47/16 70/48/17 233/48/17
f 233/48/17 41/48/17 120/47/16
f 120/47/16 237/46/16 233/48/17
f 156/42/10 93/44/10 238/44/10
f 238/44/10 79/44/10 242/42/10
f 242/42/10 83/42/10 243/42/10
f 243/42/10 82/42/10 156/42/10
f 156/42/10 238/44/10 243/42/10
f 76/46/15 234/46/15 155/45/15
f 234/46/15 75/46/15 239/45/15
f 239/45/15 79/44/15 238/44/15
f 234/46/15 239/45/15 238/44/15
f 155/45/15 234/46/15 238/44/15
f 230/48/17 72/48/17 235/47/16
f 235/47/16 75/46/16 234/46/16
f 234/46/16 76/46/16 154/47/16
f 154/47/16 78/48/17 230/48/17
f 230/48/17 235/47/16 234/46/16
f 73/49/20 226/49/20 153/54/20
f 226/49/20 67/49/20 231/54/20
f 153/54/20 226/49/20 230/48/20
f 231/54/20 72/48/20 230/48/20
f 230/48/20 78/48/20 153/54/20
f 124/55/21 33/53/21 221/53/21
f 221/53/21 57/53/21 220/55/21
f 220/55/21 54/56/21 217/56/21
f 217/56/21 36/56/21 124/55/21
f 124/55/21 221/53/21 217/56/21
f 222/51/18 63/51/18 227/50/18
f 227/50/18 67/49/18 226/49/18
f 226/49/18 73/49/18 152/50/18
f 152/50/18 80/51/18 222/51/18
f 222/51/18 227/50/18 226/49/18
f 125/57/23 36/56/22 217/56/22
f 217/56/22 54/56/22 216/57/23
f 216/57/23 50/58/23 213/58/23
f 213/58/23 31/58/23 125/57/23
f 125/57/23 217/56/22 213/58/23
f 218/53/19 60/53/19 223/52/19
f 223/52/19 63/51/19 222/51/19
f 222/51/19 80/51/19 151/52/19
f 151/52/19 69/53/19 218/53/19
f 218/53/19 223/52/19 222/51/19
f 126/59/24 31/58/24 213/58/24
f 213/58/24 50/58/24 212/59/24
f 212/59/24 45/60/24 209/60/24
f 209/60/24 30/60/24 126/59/24
f 126/59/24 213/58/24 209/60/24
f 214/56/21 56/56/21 219/55/21
f 219/55/21 60/53/21 218/53/21
f 218/53/21 69/53/21 150/55/21
f 150/55/21 71/56/21 214/56/21
f 214/56/21 219/55/21 218/53/21
f 127/61/9 30/60/9 209/60/9
f 209/60/9 45/60/9 208/61/9
f 208/61/9 42/61/9 205/61/9
f 205/61/9 25/61/9 127/61/9
f 127/61/9 209/60/9 205/61/9
f 210/58/23 51/58/23 215/57/23
f 215/57/23 56/56/22 214/56/22
f 214/56/22 71/56/22 149/57/23
f 149/57/23 68/58/23 210/58/23
f 210/58/23 215/57/23 214/56/22
f 206/60/24 47/60/24 211/59/24
f 211/59/24 51/58/24 210/58/24
f 210/58/24 68/58/24 148/59/24
f 148/59/24 106/60/24 206/60/24
f 206/60/24 211/59/24 210/58/24
f 181/34/11 19/34/11 183/33/11
f 183/33/11 23/33/11 182/33/11
f 182/33/11 99/33/11 141/33/11
f 141/33/11 107/34/11 181/34/11
f 181/34/11 183/33/11 182/33/11
f 202/61/9 43/61/9 207/61/9
f 207/61/9 47/60/9 206/60/9
f 206/60/9 106/60/9 147/61/9
f 147/61/9 108/61/9 202/61/9
f 202/61/9 207/61/9 206/60/9
f 198/63/25 39/63/25 203/63/25
f 203/63/25 43/61/25 202/61/25
f 202/61/25 108/61/25 146/63/25
f 146/63/25 101/63/25 198/63/25
f 198/63/25 203/63/25 202/61/25
f 194/65/26 35/65/26 199/64/26
f 199/64/26 39/63/26 198/63/26
f 198/63/26 101/63/26 145/64/26
f 145/64/26 102/65/26 194/65/26
f 194/65/26 199/64/26 198/63/26
f 190/66/27 32/66/27 195/65/27
f 195/65/27 35/65/27 194/65/27
f 194/65/27 102/65/27 144/65/27
f 144/65/27 96/66/27 190/66/27
f 190/66/27 195/65/27 194/65/27
f 186/67/28 27/67/28 191/67/28
f 191/67/28 32/66/28 190/66/28
f 190/66/28 96/66/28 143/67/28
f 143/67/28 98/67/28 186/67/28
f 186/67/28 191/67/28 190/66/28
f 182/33/29 23/33/29 187/68/29
f 187/68/29 27/67/29 186/67/29
f 186/67/29 98/67/29 142/68/29
f 142/68/29 99/33/29 182/33/29
f 182/33/29 187/68/29 186/67/29
f 161/69/30 85/70/30 165/70/30
f 165/70/30 7/70/30 170/69/30
f 170/69/30 11/43/30 171/43/30
f 171/43/30 89/43/30 161/69/30
f 161/69/30 165/70/30 171/43/30
f 160/73/31 84/72/31 166/72/31
f 166/72/31 4/72/31 164/73/31
f 164/73/31 7/74/31 165/74/31
f 165/74/31 85/74/31 160/73/31
f 160/73/31 166/72/31 165/74/31
f 159/76/32 88/75/32 251/75/32
f 251/75/32 92/75/32 254/76/32
f 254/76/32 4/72/32 166/72/32
f 166/72/32 84/72/32 159/76/32
f 159/76/32 251/75/32 166/72/32
