# Blender 5.2.0 LTS
# www.blender.org
mtllib dropper.mtl
o Cylinder
v 0.000000 -0.100000 -0.899516
v 0.000000 0.100000 -1.000000
v 0.175487 -0.100000 -0.882232
v 0.195090 0.100000 -0.980785
v 0.344230 -0.100000 -0.831045
v 0.382683 0.100000 -0.923880
v 0.499744 -0.100000 -0.747920
v 0.555570 0.100000 -0.831470
v 0.636054 -0.100000 -0.636054
v 0.707107 0.100000 -0.707107
v 0.747920 -0.100000 -0.499744
v 0.831470 0.100000 -0.555570
v 0.831045 -0.100000 -0.344230
v 0.923880 0.100000 -0.382683
v 0.882232 -0.100000 -0.175487
v 0.980785 0.100000 -0.195090
v 0.899516 -0.100000 0.000000
v 1.000000 0.100000 0.000000
v 0.882232 -0.100000 0.175487
v 0.980785 0.100000 0.195090
v 0.831045 -0.100000 0.344230
v 0.923880 0.100000 0.382683
v 0.747920 -0.100000 0.499744
v 0.831470 0.100000 0.555570
v 0.636054 -0.100000 0.636054
v 0.707107 0.100000 0.707107
v 0.499744 -0.100000 0.747920
v 0.555570 0.100000 0.831470
v 0.344230 -0.100000 0.831045
v 0.382683 0.100000 0.923880
v 0.175487 -0.100000 0.882232
v 0.195090 0.100000 0.980785
v 0.000000 -0.100000 0.899516
v 0.000000 0.100000 1.000000
v -0.175487 -0.100000 0.882232
v -0.195090 0.100000 0.980785
v -0.344230 -0.100000 0.831045
v -0.382683 0.100000 0.923880
v -0.499744 -0.100000 0.747920
v -0.555570 0.100000 0.831470
v -0.636054 -0.100000 0.636054
v -0.707107 0.100000 0.707107
v -0.747920 -0.100000 0.499744
v -0.831470 0.100000 0.555570
v -0.831045 -0.100000 0.344230
v -0.923880 0.100000 0.382683
v -0.882232 -0.100000 0.175487
v -0.980785 0.100000 0.195090
v -0.899516 -0.100000 0.000000
v -1.000000 0.100000 0.000000
v -0.882232 -0.100000 -0.175487
v -0.980785 0.100000 -0.195090
v -0.831045 -0.100000 -0.344230
v -0.923880 0.100000 -0.382683
v -0.747920 -0.100000 -0.499744
v -0.831470 0.100000 -0.555570
v -0.636054 -0.100000 -0.636054
v -0.707107 0.100000 -0.707107
v -0.499744 -0.100000 -0.747920
v -0.555570 0.100000 -0.831470
v -0.344230 -0.100000 -0.831045
v -0.382683 0.100000 -0.923880
v -0.175487 -0.100000 -0.882232
v -0.195090 0.100000 -0.980785
v 0.000000 -0.100000 -1.000000
v 0.195090 -0.100000 -0.980785
v 0.382683 -0.100000 -0.923880
v 0.555570 -0.100000 -0.831470
v 0.707107 -0.100000 -0.707107
v 0.831470 -0.100000 -0.555570
v 0.923880 -0.100000 -0.382683
v 0.980785 -0.100000 -0.195090
v 1.000000 -0.100000 0.000000
v 0.980785 -0.100000 0.195090
v 0.923880 -0.100000 0.382683
v 0.831470 -0.100000 0.555570
v 0.707107 -0.100000 0.707107
v 0.555570 -0.100000 0.831470
v 0.382683 -0.100000 0.923880
v 0.195090 -0.100000 0.980785
v 0.000000 -0.100000 1.000000
v -0.195090 -0.100000 0.980785
v -0.382683 -0.100000 0.923880
v -0.555570 -0.100000 0.831470
v -0.707107 -0.100000 0.707107
v -0.831470 -0.100000 0.555570
v -0.923880 -0.100000 0.382683
v -0.980785 -0.100000 0.195090
v -1.000000 -0.100000 0.000000
v -0.980785 -0.100000 -0.195090
v -0.923880 -0.100000 -0.382683
v -0.831470 -0.100000 -0.555570
v -0.707107 -0.100000 -0.707107
v -0.555570 -0.100000 -0.831470
v -0.382683 -0.100000 -0.923880
v -0.195090 -0.100000 -0.980785
v 0.000000 -1.100000 -0.899516
v 0.175487 -1.100000 -0.882232
v 0.344230 -1.100000 -0.831045
v 0.499744 -1.100000 -0.747920
v 0.636054 -1.100000 -0.636054
v 0.747920 -1.100000 -0.499744
v 0.831045 -1.100000 -0.344230
v 0.882232 -1.100000 -0.175487
v 0.899516 -1.100000 0.000000
v 0.882232 -1.100000 0.175487
v 0.831045 -1.100000 0.344230
v 0.747920 -1.100000 0.499744
v 0.636054 -1.100000 0.636054
v 0.499744 -1.100000 0.747920
v 0.344230 -1.100000 0.831045
v 0.175487 -1.100000 0.882232
v 0.000000 -1.100000 0.899516
v -0.175487 -1.100000 0.882232
v -0.344230 -1.100000 0.831045
v -0.499744 -1.100000 0.747920
v -0.636054 -1.100000 0.636054
v -0.747920 -1.100000 0.499744
v -0.831045 -1.100000 0.344230
v -0.882232 -1.100000 0.175487
v -0.899516 -1.100000 0.000000
v -0.882232 -1.100000 -0.175487
v -0.831045 -1.100000 -0.344230
v -0.747920 -1.100000 -0.499744
v -0.636054 -1.100000 -0.636054
v -0.499744 -1.100000 -0.747920
v -0.344230 -1.100000 -0.831045
v -0.175487 -1.100000 -0.882232
vn 0.0980 -0.0000 -0.9952
vn 0.2903 -0.0000 -0.9569
vn 0.4714 -0.0000 -0.8819
vn 0.6344 -0.0000 -0.7730
vn 0.7730 -0.0000 -0.6344
vn 0.8819 -0.0000 -0.4714
vn 0.9569 -0.0000 -0.2903
vn 0.9952 -0.0000 -0.0980
vn 0.9952 -0.0000 0.0980
vn 0.9569 -0.0000 0.2903
vn 0.8819 -0.0000 0.4714
vn 0.7730 -0.0000 0.6344
vn 0.6344 -0.0000 0.7730
vn 0.4714 -0.0000 0.8819
vn 0.2903 -0.0000 0.9569
vn 0.0980 -0.0000 0.9952
vn -0.0980 -0.0000 0.9952
vn -0.2903 -0.0000 0.9569
vn -0.4714 -0.0000 0.8819
vn -0.6344 -0.0000 0.7730
vn -0.7730 -0.0000 0.6344
vn -0.8819 -0.0000 0.4714
vn -0.9569 -0.0000 0.2903
vn -0.9952 -0.0000 0.0980
vn -0.9952 -0.0000 -0.0980
vn -0.9569 -0.0000 -0.2903
vn -0.8819 -0.0000 -0.4714
vn -0.7730 -0.0000 -0.6344
vn -0.6344 -0.0000 -0.7730
vn -0.4714 -0.0000 -0.8819
vn -0.0000 1.0000 -0.0000
vn -0.2903 -0.0000 -0.9569
vn -0.0980 -0.0000 -0.9952
vn -0.0000 -1.0000 -0.0000
vt 0.250000 1.000000
vt 0.323159 0.500000
vt 0.250000 0.500000
vt 0.323159 1.000000
vt 0.393506 0.500000
vt 0.393506 1.000000
vt 0.458339 0.500000
vt 0.458339 1.000000
vt 0.515165 0.500000
vt 0.515165 1.000000
vt 0.176841 0.500000
vt 0.176841 1.000000
vt 0.106494 0.500000
vt 0.106494 1.000000
vt 0.041661 0.500000
vt 0.041661 1.000000
vt -0.015165 0.500000
vt -0.015165 1.000000
vt 0.154329 0.019030
vt 0.480970 0.154329
vt 0.345671 0.480970
vt 0.750000 1.000000
vt 0.767549 0.500000
vt 0.767549 1.000000
vt 0.250000 0.025121
vt 0.298773 0.004804
vt 0.293872 0.029442
vt 0.345671 0.019030
vt 0.336058 0.042239
vt 0.388893 0.042133
vt 0.374936 0.063020
vt 0.426777 0.073223
vt 0.409014 0.090987
vt 0.457867 0.111107
vt 0.436980 0.125064
vt 0.457761 0.163943
vt 0.495196 0.201227
vt 0.470558 0.206128
vt 0.500000 0.250000
vt 0.474879 0.250000
vt 0.495196 0.298773
vt 0.470558 0.293872
vt 0.480970 0.345671
vt 0.457761 0.336058
vt 0.457867 0.388893
vt 0.436980 0.374936
vt 0.426777 0.426777
vt 0.409014 0.409014
vt 0.388893 0.457867
vt 0.374936 0.436980
vt 0.336058 0.457761
vt 0.298773 0.495196
vt 0.293872 0.470558
vt 0.250000 0.474879
vt 0.201227 0.495196
vt 0.206128 0.470558
vt 0.154329 0.480970
vt 0.163943 0.457761
vt 0.111107 0.457867
vt 0.125064 0.436980
vt 0.073223 0.426777
vt 0.090987 0.409014
vt 0.042133 0.388893
vt 0.063020 0.374936
vt 0.019030 0.345671
vt 0.042239 0.336058
vt 0.004804 0.298773
vt 0.029442 0.293872
vt 0.000000 0.250000
vt 0.025121 0.250000
vt 0.004804 0.201227
vt 0.029442 0.206128
vt 0.019030 0.154329
vt 0.042239 0.163943
vt 0.042133 0.111107
vt 0.063020 0.125064
vt 0.073223 0.073223
vt 0.090987 0.090987
vt 0.111107 0.042133
vt 0.125064 0.063020
vt 0.163943 0.042239
vt 0.201227 0.004804
vt 0.206128 0.029442
vt 0.250000 0.000000
vt 0.542133 0.111107
vt 0.701227 0.004804
vt 0.798773 0.495196
vt 0.715577 1.000000
vt 0.700026 0.500000
vt 0.700026 1.000000
vt 0.732451 1.000000
vt 0.750000 0.500000
vt 0.715577 0.500000
vt 0.732451 0.500000
vt 0.686395 1.000000
vt 0.784423 1.000000
vt 0.799974 1.000000
vt 0.813605 0.500000
vt 0.813605 1.000000
vt 0.784423 0.500000
vt 0.799974 0.500000
vt 0.686395 0.500000
vt 0.750000 0.000000
vt 0.798773 0.004804
vt 0.845671 0.019030
vt 0.888893 0.042133
vt 0.926777 0.073223
vt 0.995196 0.201227
vt 0.957867 0.111107
vt 0.980970 0.154329
vt 1.000000 0.250000
vt 0.995196 0.298773
vt 0.980970 0.345671
vt 0.957867 0.388893
vt 0.926777 0.426777
vt 0.888893 0.457867
vt 0.845671 0.480970
vt 0.701227 0.495196
vt 0.654329 0.480970
vt 0.611107 0.457867
vt 0.573223 0.426777
vt 0.504804 0.298773
vt 0.542133 0.388893
vt 0.519030 0.345671
vt 0.504804 0.201227
vt 0.519030 0.154329
vt 0.573223 0.073223
vt 0.611107 0.042133
vt 0.654329 0.019030
s 0
usemtl Material.001
f 2/1/1 66/2/1 65/3/1
f 4/4/2 67/5/2 66/2/2
f 6/6/3 68/7/3 67/5/3
f 8/8/4 69/9/4 68/7/4
f 10/10/5 70/7/5 69/9/5
f 12/8/6 71/5/6 70/7/6
f 14/6/7 72/2/7 71/5/7
f 16/4/8 73/3/8 72/2/8
f 18/1/9 74/11/9 73/3/9
f 20/12/10 75/13/10 74/11/10
f 22/14/11 76/15/11 75/13/11
f 24/16/12 77/17/12 76/15/12
f 26/10/13 78/7/13 77/9/13
f 28/8/14 79/5/14 78/7/14
f 30/6/15 80/2/15 79/5/15
f 32/4/16 81/3/16 80/2/16
f 34/1/17 82/11/17 81/3/17
f 36/12/18 83/13/18 82/11/18
f 38/14/19 84/15/19 83/13/19
f 40/16/20 85/17/20 84/15/20
f 42/18/21 86/15/21 85/17/21
f 44/16/22 87/13/22 86/15/22
f 46/14/23 88/11/23 87/13/23
f 48/12/24 89/3/24 88/11/24
f 50/1/25 90/2/25 89/3/25
f 52/4/26 91/5/26 90/2/26
f 54/6/27 92/7/27 91/5/27
f 56/8/28 93/9/28 92/7/28
f 58/18/29 94/15/29 93/17/29
f 60/16/30 95/13/30 94/15/30
f 38/19/31 22/20/31 6/21/31
f 62/14/32 96/11/32 95/13/32
f 64/12/33 65/3/33 96/11/33
f 17/22/8 104/23/8 15/24/8
f 1/25/34 66/26/34 3/27/34
f 3/27/34 67/28/34 5/29/34
f 5/29/34 68/30/34 7/31/34
f 7/31/34 69/32/34 9/33/34
f 9/33/34 70/34/34 11/35/34
f 11/35/34 71/20/34 13/36/34
f 13/36/34 72/37/34 15/38/34
f 15/38/34 73/39/34 17/40/34
f 17/40/34 74/41/34 19/42/34
f 19/42/34 75/43/34 21/44/34
f 21/44/34 76/45/34 23/46/34
f 23/46/34 77/47/34 25/48/34
f 25/48/34 78/49/34 27/50/34
f 27/50/34 79/21/34 29/51/34
f 29/51/34 80/52/34 31/53/34
f 31/53/34 81/3/34 33/54/34
f 33/54/34 82/55/34 35/56/34
f 35/56/34 83/57/34 37/58/34
f 37/58/34 84/59/34 39/60/34
f 39/60/34 85/61/34 41/62/34
f 41/62/34 86/63/34 43/64/34
f 43/64/34 87/65/34 45/66/34
f 45/66/34 88/67/34 47/68/34
f 47/68/34 89/69/34 49/70/34
f 49/70/34 90/71/34 51/72/34
f 51/72/34 91/73/34 53/74/34
f 53/74/34 92/75/34 55/76/34
f 55/76/34 93/77/34 57/78/34
f 57/78/34 94/79/34 59/80/34
f 59/80/34 95/19/34 61/81/34
f 61/81/34 96/82/34 63/83/34
f 63/83/34 65/84/34 1/25/34
f 124/85/34 128/86/34 112/87/34
f 45/88/22 118/89/22 43/90/22
f 19/91/9 105/92/9 17/22/9
f 47/91/23 119/93/23 45/88/23
f 21/88/10 106/94/10 19/91/10
f 49/22/24 120/94/24 47/91/24
f 23/90/11 107/93/11 21/88/11
f 51/24/25 121/92/25 49/22/25
f 25/95/12 108/89/12 23/90/12
f 53/96/26 122/23/26 51/24/26
f 27/97/13 109/98/13 25/99/13
f 55/97/27 123/100/27 53/96/27
f 29/96/14 110/101/14 27/97/14
f 3/24/1 97/92/1 1/22/1
f 57/99/28 124/101/28 55/97/28
f 31/24/15 111/100/15 29/96/15
f 5/96/2 98/23/2 3/24/2
f 59/90/29 125/102/29 57/95/29
f 33/22/16 112/23/16 31/24/16
f 7/97/3 99/100/3 5/96/3
f 61/88/30 126/89/30 59/90/30
f 35/91/17 113/92/17 33/22/17
f 9/99/4 100/101/4 7/97/4
f 63/91/32 127/93/32 61/88/32
f 37/88/18 114/94/18 35/91/18
f 11/97/5 101/98/5 9/99/5
f 1/22/33 128/94/33 63/91/33
f 39/90/19 115/93/19 37/88/19
f 13/96/6 102/101/6 11/97/6
f 41/95/20 116/89/20 39/90/20
f 15/24/7 103/100/7 13/96/7
f 43/90/21 117/102/21 41/95/21
f 2/1/1 4/4/1 66/2/1
f 4/4/2 6/6/2 67/5/2
f 6/6/3 8/8/3 68/7/3
f 8/8/4 10/10/4 69/9/4
f 10/10/5 12/8/5 70/7/5
f 12/8/6 14/6/6 71/5/6
f 14/6/7 16/4/7 72/2/7
f 16/4/8 18/1/8 73/3/8
f 18/1/9 20/12/9 74/11/9
f 20/12/10 22/14/10 75/13/10
f 22/14/11 24/16/11 76/15/11
f 24/16/12 26/18/12 77/17/12
f 26/10/13 28/8/13 78/7/13
f 28/8/14 30/6/14 79/5/14
f 30/6/15 32/4/15 80/2/15
f 32/4/16 34/1/16 81/3/16
f 34/1/17 36/12/17 82/11/17
f 36/12/18 38/14/18 83/13/18
f 38/14/19 40/16/19 84/15/19
f 40/16/20 42/18/20 85/17/20
f 42/18/21 44/16/21 86/15/21
f 44/16/22 46/14/22 87/13/22
f 46/14/23 48/12/23 88/11/23
f 48/12/24 50/1/24 89/3/24
f 50/1/25 52/4/25 90/2/25
f 52/4/26 54/6/26 91/5/26
f 54/6/27 56/8/27 92/7/27
f 56/8/28 58/10/28 93/9/28
f 58/18/29 60/16/29 94/15/29
f 60/16/30 62/14/30 95/13/30
f 6/21/31 4/52/31 2/3/31
f 2/3/31 64/55/31 6/21/31
f 64/55/31 62/57/31 6/21/31
f 62/57/31 60/59/31 58/61/31
f 58/61/31 56/63/31 54/65/31
f 54/65/31 52/67/31 50/69/31
f 50/69/31 48/71/31 54/65/31
f 48/71/31 46/73/31 54/65/31
f 46/73/31 44/75/31 42/77/31
f 42/77/31 40/79/31 38/19/31
f 38/19/31 36/82/31 30/28/31
f 36/82/31 34/84/31 30/28/31
f 34/84/31 32/26/31 30/28/31
f 30/28/31 28/30/31 26/32/31
f 26/32/31 24/34/31 22/20/31
f 22/20/31 20/37/31 14/43/31
f 20/37/31 18/39/31 14/43/31
f 18/39/31 16/41/31 14/43/31
f 14/43/31 12/45/31 10/47/31
f 10/47/31 8/49/31 6/21/31
f 62/57/31 58/61/31 6/21/31
f 58/61/31 54/65/31 6/21/31
f 46/73/31 42/77/31 54/65/31
f 42/77/31 38/19/31 54/65/31
f 30/28/31 26/32/31 38/19/31
f 26/32/31 22/20/31 38/19/31
f 14/43/31 10/47/31 22/20/31
f 10/47/31 6/21/31 22/20/31
f 6/21/31 54/65/31 38/19/31
f 62/14/32 64/12/32 96/11/32
f 64/12/33 2/1/33 65/3/33
f 17/22/8 105/92/8 104/23/8
f 1/25/34 65/84/34 66/26/34
f 3/27/34 66/26/34 67/28/34
f 5/29/34 67/28/34 68/30/34
f 7/31/34 68/30/34 69/32/34
f 9/33/34 69/32/34 70/34/34
f 11/35/34 70/34/34 71/20/34
f 13/36/34 71/20/34 72/37/34
f 15/38/34 72/37/34 73/39/34
f 17/40/34 73/39/34 74/41/34
f 19/42/34 74/41/34 75/43/34
f 21/44/34 75/43/34 76/45/34
f 23/46/34 76/45/34 77/47/34
f 25/48/34 77/47/34 78/49/34
f 27/50/34 78/49/34 79/21/34
f 29/51/34 79/21/34 80/52/34
f 31/53/34 80/52/34 81/3/34
f 33/54/34 81/3/34 82/55/34
f 35/56/34 82/55/34 83/57/34
f 37/58/34 83/57/34 84/59/34
f 39/60/34 84/59/34 85/61/34
f 41/62/34 85/61/34 86/63/34
f 43/64/34 86/63/34 87/65/34
f 45/66/34 87/65/34 88/67/34
f 47/68/34 88/67/34 89/69/34
f 49/70/34 89/69/34 90/71/34
f 51/72/34 90/71/34 91/73/34
f 53/74/34 91/73/34 92/75/34
f 55/76/34 92/75/34 93/77/34
f 57/78/34 93/77/34 94/79/34
f 59/80/34 94/79/34 95/19/34
f 61/81/34 95/19/34 96/82/34
f 63/83/34 96/82/34 65/84/34
f 128/86/34 97/103/34 98/104/34
f 98/104/34 99/105/34 100/106/34
f 100/106/34 101/107/34 104/108/34
f 101/107/34 102/109/34 104/108/34
f 102/109/34 103/110/34 104/108/34
f 104/108/34 105/111/34 106/112/34
f 106/112/34 107/113/34 108/114/34
f 108/114/34 109/115/34 112/87/34
f 109/115/34 110/116/34 112/87/34
f 110/116/34 111/117/34 112/87/34
f 112/87/34 113/92/34 114/118/34
f 114/118/34 115/119/34 116/120/34
f 116/120/34 117/121/34 120/122/34
f 117/121/34 118/123/34 120/122/34
f 118/123/34 119/124/34 120/122/34
f 120/122/34 121/39/34 122/125/34
f 122/125/34 123/126/34 124/85/34
f 124/85/34 125/127/34 128/86/34
f 125/127/34 126/128/34 128/86/34
f 126/128/34 127/129/34 128/86/34
f 128/86/34 98/104/34 100/106/34
f 104/108/34 106/112/34 108/114/34
f 112/87/34 114/118/34 116/120/34
f 120/122/34 122/125/34 124/85/34
f 128/86/34 100/106/34 112/87/34
f 100/106/34 104/108/34 112/87/34
f 104/108/34 108/114/34 112/87/34
f 112/87/34 116/120/34 120/122/34
f 120/122/34 124/85/34 112/87/34
f 45/88/22 119/93/22 118/89/22
f 19/91/9 106/94/9 105/92/9
f 47/91/23 120/94/23 119/93/23
f 21/88/10 107/93/10 106/94/10
f 49/22/24 121/92/24 120/94/24
f 23/90/11 108/89/11 107/93/11
f 51/24/25 122/23/25 121/92/25
f 25/95/12 109/102/12 108/89/12
f 53/96/26 123/100/26 122/23/26
f 27/97/13 110/101/13 109/98/13
f 55/97/27 124/101/27 123/100/27
f 29/96/14 111/100/14 110/101/14
f 3/24/1 98/23/1 97/92/1
f 57/99/28 125/98/28 124/101/28
f 31/24/15 112/23/15 111/100/15
f 5/96/2 99/100/2 98/23/2
f 59/90/29 126/89/29 125/102/29
f 33/22/16 113/92/16 112/23/16
f 7/97/3 100/101/3 99/100/3
f 61/88/30 127/93/30 126/89/30
f 35/91/17 114/94/17 113/92/17
f 9/99/4 101/98/4 100/101/4
f 63/91/32 128/94/32 127/93/32
f 37/88/18 115/93/18 114/94/18
f 11/97/5 102/101/5 101/98/5
f 1/22/33 97/92/33 128/94/33
f 39/90/19 116/89/19 115/93/19
f 13/96/6 103/100/6 102/101/6
f 41/95/20 117/102/20 116/89/20
f 15/24/7 104/23/7 103/100/7
f 43/90/21 118/89/21 117/102/21
