# Blender 5.2.0 LTS
# www.blender.org
mtllib funnel.mtl
o Cylinder
v -1.000000 -1.000000 1.000000
v -1.000000 0.000000 1.000000
v -0.636396 0.000000 0.636396
v -0.748323 0.000000 0.500013
v -0.500013 0.000000 0.748323
v -0.636396 0.125000 0.636396
v -0.748323 0.125000 0.500013
v -0.500013 0.125000 0.748323
v -0.572448 0.125000 0.572448
v -0.500013 0.625000 0.748323
v -0.831492 0.000000 0.344415
v -0.831492 0.125000 0.344415
v -0.882707 0.000000 0.175581
v -0.882707 0.125000 0.175581
v -0.794009 0.125000 0.157938
v -0.673128 0.125000 0.449770
v -0.747940 0.125000 0.309807
v -0.344415 0.000000 0.831492
v -0.344415 0.125000 0.831492
v -0.449770 0.125000 0.673128
v -0.309807 0.125000 0.747940
v -0.175581 0.000000 0.882707
v -0.175581 0.125000 0.882707
v -0.157938 0.125000 0.794009
v -0.344415 0.625000 0.831492
v -0.449770 0.625000 0.673128
v -0.309807 0.625000 0.747940
v -0.175581 0.625000 0.882707
v -0.157938 0.625000 0.794009
v -1.000000 -1.000000 -1.000000
v -0.900000 0.000000 0.000000
v -0.882707 0.000000 -0.175581
v -0.900000 0.125000 0.000000
v -0.882707 0.125000 -0.175581
v -0.809565 0.125000 0.000000
v -0.794009 0.125000 -0.157938
v -0.831492 0.000000 -0.344415
v -0.831492 0.125000 -0.344415
v -0.747940 0.125000 -0.309807
v -0.673128 0.125000 -0.449770
v -1.000000 0.000000 -1.000000
v -0.748323 0.000000 -0.500013
v -0.636396 0.000000 -0.636396
v -0.500013 0.000000 -0.748323
v -0.748323 0.125000 -0.500013
v -0.636396 0.125000 -0.636396
v -0.572448 0.125000 -0.572448
v -0.500013 0.125000 -0.748323
v -0.636396 0.625000 -0.636396
v -0.572448 0.625000 -0.572448
v -0.500013 0.625000 -0.748323
v -0.449770 0.125000 -0.673128
v -0.309807 0.125000 -0.747940
v -0.344415 0.000000 -0.831492
v -0.344415 0.125000 -0.831492
v -0.175581 0.000000 -0.882707
v -0.157938 0.125000 -0.794009
v -0.175581 0.125000 -0.882707
v -0.449770 0.625000 -0.673128
v -0.309807 0.625000 -0.747940
v -0.344415 0.625000 -0.831492
v 1.000000 -1.000000 1.000000
v 0.000000 0.000000 0.900000
v 0.175581 0.000000 0.882707
v 0.000000 0.125000 0.900000
v 0.000000 0.125000 0.809565
v 0.175581 0.125000 0.882707
v 0.157938 0.125000 0.794009
v 0.344415 0.000000 0.831492
v 0.344415 0.125000 0.831492
v 0.309807 0.125000 0.747940
v 0.449770 0.125000 0.673128
v 0.500013 0.000000 0.748323
v 0.636396 0.000000 0.636396
v 0.748323 0.000000 0.500013
v 0.500013 0.125000 0.748323
v 0.572448 0.125000 0.572448
v 0.636396 0.125000 0.636396
v 0.748323 0.125000 0.500013
v 1.000000 0.000000 1.000000
v 0.673128 0.125000 0.449770
v 0.747940 0.125000 0.309807
v 0.831492 0.000000 0.344415
v 0.831492 0.125000 0.344415
v 0.882707 0.000000 0.175581
v 0.794009 0.125000 0.157938
v 0.882707 0.125000 0.175581
v 0.794009 0.625000 0.157938
v 0.882707 0.625000 0.175581
v 1.000000 -1.000000 -1.000000
v 0.000000 0.000000 -0.900000
v 0.175581 0.000000 -0.882707
v 0.000000 0.125000 -0.809565
v 0.000000 0.125000 -0.900000
v 0.157938 0.125000 -0.794009
v 0.175581 0.125000 -0.882707
v 0.309807 0.125000 -0.747940
v 0.449770 0.125000 -0.673128
v 0.344415 0.000000 -0.831492
v 0.344415 0.125000 -0.831492
v 0.747940 0.125000 -0.309807
v 0.673128 0.125000 -0.449770
v 0.900000 0.000000 0.000000
v 0.882707 0.000000 -0.175581
v 0.809565 0.125000 0.000000
v 0.794009 0.125000 -0.157938
v 0.900000 0.125000 0.000000
v 0.882707 0.125000 -0.175581
v 0.831492 0.000000 -0.344415
v 0.831492 0.125000 -0.344415
v 0.809565 0.625000 0.000000
v 0.794009 0.625000 -0.157938
v 0.900000 0.625000 0.000000
v 0.882707 0.625000 -0.175581
v 0.500013 0.000000 -0.748323
v 0.748323 0.000000 -0.500013
v 0.636396 0.000000 -0.636396
v 0.572448 0.125000 -0.572448
v 0.500013 0.125000 -0.748323
v 0.748323 0.125000 -0.500013
v 0.636396 0.125000 -0.636396
v 1.000000 0.000000 -1.000000
vn 0.0980 -0.0000 -0.9952
vn 0.2903 -0.0000 -0.9569
vn 0.4714 -0.0000 -0.8819
vn 0.6344 -0.0000 -0.7730
vn 0.7730 -0.0000 -0.6344
vn 0.8819 -0.0000 -0.4714
vn 0.9569 -0.0000 -0.2903
vn 0.9952 -0.0000 -0.0980
vn 0.9952 -0.0000 0.0980
vn 0.9569 -0.0000 0.2903
vn 0.8819 -0.0000 0.4714
vn 0.7730 -0.0000 0.6344
vn 0.6344 -0.0000 0.7730
vn 0.4714 -0.0000 0.8819
vn 0.2903 -0.0000 0.9569
vn 0.0980 -0.0000 0.9952
vn -0.0980 -0.0000 0.9952
vn -0.2903 -0.0000 0.9569
vn -0.4714 -0.0000 0.8819
vn -0.6344 -0.0000 0.7730
vn -0.7730 -0.0000 0.6344
vn -0.8819 -0.0000 0.4714
vn -0.9569 -0.0000 0.2903
vn -0.9952 -0.0000 0.0980
vn -0.9952 -0.0000 -0.0980
vn -0.9569 -0.0000 -0.2903
vn -0.8819 -0.0000 -0.4714
vn -0.7730 -0.0000 -0.6344
vn -0.6344 -0.0000 -0.7730
vn -0.4714 -0.0000 -0.8819
vn -0.0000 1.0000 -0.0000
vn -0.2903 -0.0000 -0.9569
vn -0.0980 -0.0000 -0.9952
vn -0.1951 -0.0000 -0.9808
vn -0.8315 -0.0000 -0.5556
vn 0.9239 -0.0000 -0.3827
vn -0.1951 -0.0000 0.9808
vn -0.7071 -0.0000 0.7071
vn 0.9808 -0.0000 0.1951
vn -1.0000 -0.0000 -0.0000
vn -0.0000 -0.0000 -1.0000
vn 1.0000 -0.0000 -0.0000
vn -0.0000 -0.0000 1.0000
vn -0.0000 -1.0000 -0.0000
vt 0.625000 0.984375
vt 0.617188 0.515625
vt 0.625000 0.515624
vt 0.617188 0.984375
vt 0.609375 0.515625
vt 0.609375 0.984375
vt 0.601562 0.515625
vt 0.601562 0.984375
vt 0.593750 0.515625
vt 0.593750 0.984375
vt 0.585938 0.515625
vt 0.578125 0.515625
vt 0.585938 0.984375
vt 0.578125 0.984375
vt 0.570312 0.515625
vt 0.570312 0.984375
vt 0.562500 0.515625
vt 0.562500 0.984375
vt 0.554688 0.515625
vt 0.554688 0.984375
vt 0.546875 0.515625
vt 0.546875 0.984375
vt 0.539062 0.515625
vt 0.539062 0.984375
vt 0.531250 0.515626
vt 0.531250 0.984376
vt 0.523438 0.515626
vt 0.523438 0.984376
vt 0.515625 0.515626
vt 0.515625 0.984376
vt 0.507812 0.515626
vt 0.507812 0.984376
vt 0.500000 0.515626
vt 0.500000 0.984375
vt 0.742188 0.515625
vt 0.750000 0.984375
vt 0.742188 0.984375
vt 0.734375 0.515625
vt 0.734375 0.984375
vt 0.726562 0.515625
vt 0.726562 0.984375
vt 0.718750 0.515625
vt 0.718750 0.984375
vt 0.710938 0.515625
vt 0.710938 0.984375
vt 0.703125 0.515625
vt 0.703125 0.984375
vt 0.695312 0.515625
vt 0.695312 0.984375
vt 0.687500 0.515625
vt 0.687500 0.984375
vt 0.679688 0.515625
vt 0.679688 0.984375
vt 0.671875 0.515625
vt 0.671875 0.984375
vt 0.664062 0.515624
vt 0.664062 0.984375
vt 0.656250 0.515624
vt 0.656250 0.984375
vt 0.648438 0.515624
vt 0.648438 0.984375
vt 0.640625 0.515624
vt 0.073223 0.146447
vt 0.426777 0.146447
vt 0.426777 0.853553
vt 0.640625 0.984375
vt 0.632812 0.515624
vt 0.632812 0.984375
vt 0.625000 0.500000
vt 0.646936 0.470558
vt 0.649386 0.495196
vt 0.668029 0.457761
vt 0.672835 0.480970
vt 0.687468 0.436980
vt 0.713388 0.426777
vt 0.704507 0.409014
vt 0.718490 0.374936
vt 0.728881 0.336058
vt 0.728934 0.388893
vt 0.735279 0.293872
vt 0.740485 0.345671
vt 0.781250 1.000000
vt 0.750000 1.000000
vt 0.461736 0.292117
vt 0.485388 0.296822
vt 0.728881 0.163943
vt 0.747598 0.201227
vt 0.735279 0.206128
vt 0.718490 0.125064
vt 0.740485 0.154329
vt 0.704507 0.090987
vt 0.728934 0.111107
vt 0.687468 0.063020
vt 0.713388 0.073223
vt 0.668029 0.042239
vt 0.694446 0.042133
vt 0.646936 0.029442
vt 0.672835 0.019030
vt 0.625000 0.025121
vt 0.649386 0.004804
vt 0.603064 0.029442
vt 0.625000 0.000000
vt 0.130061 0.070499
vt 0.167385 0.050549
vt 0.116663 0.050447
vt 0.545493 0.090987
vt 0.555554 0.042133
vt 0.562532 0.063020
vt 0.536612 0.073223
vt 0.531510 0.125064
vt 0.521066 0.111107
vt 0.509515 0.154329
vt 0.521119 0.163943
vt 0.514721 0.206128
vt 0.502402 0.201227
vt 0.512560 0.250000
vt 0.500000 0.250000
vt 0.514721 0.293872
vt 0.502402 0.298773
vt 0.521119 0.336058
vt 0.509515 0.345671
vt 0.531510 0.374936
vt 0.521066 0.388893
vt 0.536612 0.426777
vt 0.545493 0.409014
vt 0.167385 0.449451
vt 0.130061 0.429501
vt 0.158156 0.471731
vt 0.577165 0.480970
vt 0.603064 0.470558
vt 0.600614 0.495196
vt 0.625000 0.474879
vt 0.737440 0.250000
vt 0.747598 0.298773
vt 0.750000 0.250000
vt 0.718750 1.000000
vt 0.465884 0.250000
vt 0.485388 0.203178
vt 0.461736 0.207883
vt 0.562532 0.436980
vt 0.555554 0.457867
vt 0.581971 0.457761
vt 0.097347 0.402653
vt 0.080294 0.419706
vt 0.125000 1.000000
vt 0.093750 1.000000
vt 0.062500 1.000000
vt 0.581971 0.042239
vt 0.600614 0.004804
vt 0.577165 0.019030
vt 0.207883 0.038264
vt 0.203178 0.014612
vt 0.437500 1.000000
vt 0.468750 1.000000
vt 0.406250 1.000000
vt 0.500000 0.500000
vt 0.000000 0.000000
vt 0.500000 0.000000
vt 0.000000 0.500000
vt 0.000000 1.000000
vt 0.500000 1.000000
vt 0.375003 0.874161
vt 0.409099 0.818198
vt 0.124997 0.125839
vt 0.090901 0.181802
vt 0.750000 0.515626
vt 0.388893 0.915735
vt 0.345671 0.961940
vt 0.298773 0.990393
vt 0.250000 1.000000
vt 0.201227 0.990393
vt 0.073223 0.853553
vt 0.154329 0.961940
vt 0.111107 0.915735
vt 0.042133 0.777785
vt 0.019030 0.691342
vt 0.004804 0.597545
vt 0.000000 0.500000
vt 0.004804 0.402455
vt 0.019030 0.308658
vt 0.042133 0.222215
vt 0.111107 0.084265
vt 0.154329 0.038060
vt 0.201227 0.009607
vt 0.250000 0.000000
vt 0.298773 0.009607
vt 0.345671 0.038060
vt 0.388893 0.084265
vt 0.457867 0.222215
vt 0.480970 0.308658
vt 0.495196 0.402455
vt 0.500000 0.500000
vt 0.495196 0.597545
vt 0.480970 0.691342
vt 0.457867 0.777785
vt 0.694446 0.457867
vt 0.293895 0.941353
vt 0.336104 0.915746
vt 0.457873 0.672208
vt 0.470676 0.587791
vt 0.437081 0.750006
vt 0.250000 0.950000
vt 0.475000 0.500000
vt 0.206105 0.941353
vt 0.163896 0.915746
vt 0.470676 0.412209
vt 0.457873 0.327792
vt 0.124997 0.874161
vt 0.090901 0.818198
vt 0.437081 0.249993
vt 0.409099 0.181802
vt 0.062919 0.750006
vt 0.042127 0.672208
vt 0.375003 0.125839
vt 0.336104 0.084254
vt 0.029323 0.587791
vt 0.025000 0.500000
vt 0.293895 0.058647
vt 0.250000 0.050000
vt 0.029323 0.412209
vt 0.206105 0.058647
vt 0.042127 0.327792
vt 0.062919 0.249993
vt 0.163896 0.084254
s 0
usemtl Material.001
f 94/1/1 92/2/1 91/3/1
f 96/4/2 99/5/2 92/2/2
f 100/6/3 115/7/3 99/5/3
f 119/8/4 117/9/4 115/7/4
f 121/10/5 116/11/5 117/9/5
f 109/12/6 120/13/6 110/14/6
f 104/15/7 110/14/7 108/16/7
f 103/17/8 108/16/8 107/18/8
f 85/19/9 107/18/9 87/20/9
f 83/21/10 87/20/10 84/22/10
f 75/23/11 84/22/11 79/24/11
f 74/25/12 79/24/12 78/26/12
f 73/27/13 78/26/13 76/28/13
f 69/29/14 76/28/14 70/30/14
f 64/31/15 70/30/15 67/32/15
f 63/33/16 67/32/16 65/34/16
f 22/35/17 65/36/17 23/37/17
f 18/38/18 23/37/18 19/39/18
f 5/40/19 19/39/19 8/41/19
f 3/42/20 8/41/20 6/43/20
f 4/44/21 6/43/21 7/45/21
f 7/45/22 11/46/22 4/44/22
f 12/47/23 13/48/23 11/46/23
f 14/49/24 31/50/24 13/48/24
f 33/51/25 32/52/25 31/50/25
f 34/53/26 37/54/26 32/52/26
f 38/55/27 42/56/27 37/54/27
f 45/57/28 43/58/28 42/56/28
f 46/59/29 44/60/29 43/58/29
f 48/61/30 54/62/30 44/60/30
f 9/63/31 77/64/31 118/65/31
f 55/66/32 56/67/32 54/62/32
f 58/68/33 91/3/33 56/67/33
f 94/69/31 95/70/31 96/71/31
f 96/71/31 97/72/31 100/73/31
f 98/74/31 100/73/31 97/72/31
f 121/75/31 98/74/31 118/76/31
f 102/77/31 121/75/31 118/76/31
f 101/78/31 120/79/31 102/77/31
f 106/80/31 110/81/31 101/78/31
f 108/82/8 113/83/8 107/83/8
f 106/84/34 114/85/34 108/85/34
f 82/86/31 87/87/31 86/88/31
f 81/89/31 84/90/31 82/86/31
f 77/91/31 79/92/31 81/89/31
f 72/93/31 78/94/31 77/91/31
f 71/95/31 76/96/31 72/93/31
f 68/97/31 70/98/31 71/95/31
f 66/99/31 67/100/31 68/97/31
f 24/101/31 65/102/31 66/99/31
f 20/103/3 27/104/3 21/104/3
f 8/105/35 26/103/35 20/103/35
f 9/106/31 8/107/31 20/108/31
f 6/109/31 16/110/31 7/111/31
f 12/112/31 16/110/31 17/113/31
f 12/112/31 15/114/31 14/115/31
f 14/115/31 35/116/31 33/117/31
f 33/117/31 36/118/31 34/119/31
f 34/119/31 39/120/31 38/121/31
f 38/121/31 40/122/31 45/123/31
f 46/124/31 40/122/31 47/125/31
f 53/126/14 59/127/14 52/127/14
f 55/128/36 60/126/36 53/126/36
f 55/129/31 57/130/31 58/131/31
f 58/131/31 93/132/31 94/69/31
f 111/133/31 114/134/31 112/80/31
f 88/88/31 113/135/31 111/133/31
f 107/83/9 89/136/9 87/136/9
f 105/137/24 112/84/24 106/84/24
f 87/138/37 88/139/37 86/139/37
f 86/139/25 111/137/25 105/137/25
f 49/124/31 59/140/31 51/141/31
f 61/129/31 59/140/31 60/142/31
f 47/143/38 49/144/38 46/144/38
f 46/145/29 51/146/29 48/146/29
f 50/143/13 52/127/13 59/127/13
f 48/146/30 61/147/30 55/147/30
f 27/148/31 28/149/31 29/101/31
f 25/150/31 26/108/31 10/107/31
f 24/151/39 28/152/39 23/152/39
f 25/153/18 23/154/18 28/154/18
f 21/104/2 29/151/2 24/151/2
f 19/153/19 10/155/19 8/155/19
f 2/156/40 30/157/40 1/158/40
f 41/156/41 90/157/41 30/158/41
f 62/157/42 122/156/42 80/159/42
f 1/157/43 80/156/43 2/159/43
f 1/160/44 90/158/44 62/161/44
f 115/162/31 117/163/31 122/161/31
f 5/164/31 3/165/31 2/157/31
f 94/1/1 96/4/1 92/2/1
f 96/4/2 100/6/2 99/5/2
f 100/6/3 119/8/3 115/7/3
f 119/8/4 121/10/4 117/9/4
f 121/10/5 120/13/5 116/11/5
f 109/12/6 116/11/6 120/13/6
f 104/15/7 109/12/7 110/14/7
f 103/17/8 104/15/8 108/16/8
f 85/19/9 103/17/9 107/18/9
f 83/21/10 85/19/10 87/20/10
f 75/23/11 83/21/11 84/22/11
f 74/25/12 75/23/12 79/24/12
f 73/27/13 74/25/13 78/26/13
f 69/29/14 73/27/14 76/28/14
f 64/31/15 69/29/15 70/30/15
f 63/33/16 64/31/16 67/32/16
f 22/35/17 63/166/17 65/36/17
f 18/38/18 22/35/18 23/37/18
f 5/40/19 18/38/19 19/39/19
f 3/42/20 5/40/20 8/41/20
f 4/44/21 3/42/21 6/43/21
f 7/45/22 12/47/22 11/46/22
f 12/47/23 14/49/23 13/48/23
f 14/49/24 33/51/24 31/50/24
f 33/51/25 34/53/25 32/52/25
f 34/53/26 38/55/26 37/54/26
f 38/55/27 45/57/27 42/56/27
f 45/57/28 46/59/28 43/58/28
f 46/59/29 48/61/29 44/60/29
f 48/61/30 55/66/30 54/62/30
f 118/65/31 98/167/31 97/168/31
f 97/168/31 95/169/31 118/65/31
f 95/169/31 93/170/31 118/65/31
f 93/170/31 57/171/31 47/172/31
f 57/171/31 53/173/31 47/172/31
f 53/173/31 52/174/31 47/172/31
f 47/172/31 40/175/31 39/176/31
f 39/176/31 36/177/31 47/172/31
f 36/177/31 35/178/31 47/172/31
f 35/178/31 15/179/31 9/63/31
f 15/179/31 17/180/31 9/63/31
f 17/180/31 16/181/31 9/63/31
f 9/63/31 20/182/31 21/183/31
f 21/183/31 24/184/31 9/63/31
f 24/184/31 66/185/31 9/63/31
f 66/185/31 68/186/31 77/64/31
f 68/186/31 71/187/31 77/64/31
f 71/187/31 72/188/31 77/64/31
f 77/64/31 81/189/31 82/190/31
f 82/190/31 86/191/31 77/64/31
f 86/191/31 105/192/31 77/64/31
f 105/192/31 106/193/31 118/65/31
f 106/193/31 101/194/31 118/65/31
f 101/194/31 102/195/31 118/65/31
f 118/65/31 93/170/31 47/172/31
f 47/172/31 35/178/31 9/63/31
f 9/63/31 66/185/31 77/64/31
f 77/64/31 105/192/31 118/65/31
f 118/65/31 47/172/31 9/63/31
f 55/66/32 58/68/32 56/67/32
f 58/68/33 94/1/33 91/3/33
f 94/69/31 93/132/31 95/70/31
f 96/71/31 95/70/31 97/72/31
f 98/74/31 119/196/31 100/73/31
f 121/75/31 119/196/31 98/74/31
f 102/77/31 120/79/31 121/75/31
f 101/78/31 110/81/31 120/79/31
f 106/80/31 108/134/31 110/81/31
f 108/82/8 114/82/8 113/83/8
f 106/84/34 112/84/34 114/85/34
f 82/86/31 84/90/31 87/87/31
f 81/89/31 79/92/31 84/90/31
f 77/91/31 78/94/31 79/92/31
f 72/93/31 76/96/31 78/94/31
f 71/95/31 70/98/31 76/96/31
f 68/97/31 67/100/31 70/98/31
f 66/99/31 65/102/31 67/100/31
f 24/101/31 23/149/31 65/102/31
f 20/103/3 26/103/3 27/104/3
f 8/105/35 10/105/35 26/103/35
f 9/106/31 6/109/31 8/107/31
f 6/109/31 9/106/31 16/110/31
f 12/112/31 7/111/31 16/110/31
f 12/112/31 17/113/31 15/114/31
f 14/115/31 15/114/31 35/116/31
f 33/117/31 35/116/31 36/118/31
f 34/119/31 36/118/31 39/120/31
f 38/121/31 39/120/31 40/122/31
f 46/124/31 45/123/31 40/122/31
f 53/126/14 60/126/14 59/127/14
f 55/128/36 61/128/36 60/126/36
f 55/129/31 53/142/31 57/130/31
f 58/131/31 57/130/31 93/132/31
f 111/133/31 113/135/31 114/134/31
f 88/88/31 89/87/31 113/135/31
f 107/83/9 113/83/9 89/136/9
f 105/137/24 111/137/24 112/84/24
f 87/138/37 89/138/37 88/139/37
f 86/139/25 88/139/25 111/137/25
f 49/124/31 50/125/31 59/140/31
f 61/129/31 51/141/31 59/140/31
f 47/143/38 50/143/38 49/144/38
f 46/145/29 49/145/29 51/146/29
f 50/143/13 47/143/13 52/127/13
f 48/146/30 51/146/30 61/147/30
f 27/148/31 25/150/31 28/149/31
f 25/150/31 27/148/31 26/108/31
f 24/151/39 29/151/39 28/152/39
f 25/153/18 19/153/18 23/154/18
f 21/104/2 27/104/2 29/151/2
f 19/153/19 25/153/19 10/155/19
f 2/156/40 41/159/40 30/157/40
f 41/156/41 122/159/41 90/157/41
f 62/157/42 90/158/42 122/156/42
f 1/157/43 62/158/43 80/156/43
f 1/160/44 30/157/44 90/158/44
f 122/161/31 41/160/31 92/197/31
f 122/161/31 92/197/31 99/198/31
f 109/199/31 104/200/31 122/161/31
f 116/201/31 109/199/31 122/161/31
f 122/161/31 99/198/31 115/162/31
f 117/163/31 116/201/31 122/161/31
f 91/202/31 92/197/31 41/160/31
f 80/158/31 122/161/31 103/203/31
f 122/161/31 104/200/31 103/203/31
f 56/204/31 91/202/31 41/160/31
f 54/205/31 56/204/31 41/160/31
f 80/158/31 103/203/31 85/206/31
f 80/158/31 85/206/31 83/207/31
f 44/208/31 54/205/31 41/160/31
f 43/209/31 44/208/31 41/160/31
f 80/158/31 83/207/31 75/210/31
f 80/158/31 75/210/31 74/211/31
f 42/212/31 43/209/31 41/160/31
f 37/213/31 42/212/31 41/160/31
f 80/158/31 74/211/31 73/214/31
f 80/158/31 73/214/31 69/215/31
f 32/216/31 37/213/31 41/160/31
f 31/217/31 32/216/31 41/160/31
f 80/158/31 69/215/31 64/218/31
f 80/158/31 64/218/31 63/219/31
f 31/217/31 41/160/31 2/157/31
f 13/220/31 31/217/31 2/157/31
f 2/157/31 80/158/31 63/219/31
f 2/157/31 63/219/31 22/221/31
f 11/222/31 13/220/31 2/157/31
f 4/223/31 11/222/31 2/157/31
f 2/157/31 22/221/31 18/224/31
f 2/157/31 18/224/31 5/164/31
f 3/165/31 4/223/31 2/157/31
