# Blender 5.2.0 LTS
# www.blender.org
mtllib laser.mtl
o Cube
v -0.500000 0.500000 -0.500000
v 0.500000 0.500000 -0.500000
v -0.500000 -0.500000 -0.500000
v 0.500000 -0.500000 -0.500000
v -0.150000 0.150000 -0.000000
v 0.150000 0.150000 -0.000000
v -0.150000 -0.150000 0.000000
v 0.150000 -0.150000 0.000000
v 0.500000 -0.500000 0.010000
v -0.500000 -0.500000 0.010000
v -0.500000 0.500000 0.010000
v 0.500000 0.500000 0.010000
v 0.150000 -0.150000 0.010000
v -0.150000 -0.150000 0.010000
v -0.150000 0.150000 0.010000
v 0.150000 0.150000 0.010000
v 0.150000 -0.150000 0.060000
v 0.000000 0.000000 0.210000
v 0.000000 0.000000 0.210000
v -0.150000 -0.150000 0.060000
v 0.000000 0.000000 0.210000
v -0.150000 0.150000 0.060000
v 0.150000 0.150000 0.060000
v 0.000000 0.000000 0.210000
vn -0.0000 -0.0000 -1.0000
vn -0.0000 -1.0000 -0.0000
vn 1.0000 -0.0000 -0.0000
vn -0.0000 1.0000 -0.0000
vn -1.0000 -0.0000 -0.0000
vn -0.0000 0.0286 0.9996
vn 0.0286 -0.0000 0.9996
vn -0.0286 -0.0000 0.9996
vn -0.0000 -0.0286 0.9996
vn -0.0000 -0.8480 0.5300
vn -0.7071 -0.0000 0.7071
vn 0.7071 -0.0000 0.7071
vn -0.0000 0.7071 0.7071
vn -0.0000 -0.7071 0.7071
vn -0.7071 0.0001 0.7071
vn -0.0000 0.7362 0.6768
vn -0.0000 0.7363 0.6767
vt 0.500000 1.000000
vt 0.000000 0.000000
vt 0.500000 0.000000
vt 0.513996 0.546727
vt 0.512302 0.545476
vt 0.512302 0.535018
vt 0.000000 1.000000
vt 0.325000 0.350000
vt 0.325000 0.650000
vt 0.175000 0.350000
vt 0.175000 0.650000
vt 0.503539 0.546727
vt 0.501845 0.535018
vt 0.513996 0.557184
vt 0.501845 0.545476
vt 0.503539 0.557184
vt 0.750000 0.500000
vt 1.000000 1.000000
vt 1.000000 0.000000
vt 0.511353 0.625977
vt 0.511352 0.625977
s 1
usemtl Material.001
f 2/1/1 3/2/1 1/3/1
f 4/1/2 10/2/2 3/3/2
f 8/4/3 16/5/3 13/6/3
f 12/1/4 1/2/4 11/3/4
f 10/3/5 1/7/5 3/2/5
f 4/7/3 12/3/3 9/1/3
f 7/8/6 9/1/6 8/9/6
f 5/10/7 10/3/7 7/8/7
f 8/9/8 12/7/8 6/11/8
f 6/11/9 11/2/9 5/10/9
f 7/12/2 13/6/2 14/13/2
f 6/14/4 15/15/4 16/5/4
f 5/16/5 14/13/5 15/15/5
s 0
f 19/17/10 17/18/10 18/17/2
s 1
f 20/19/11 21/17/11 22/3/11
f 23/1/12 18/17/12 17/18/12
f 22/3/13 24/17/13 23/1/13
f 13/6/2 20/13/2 14/13/2
s 0
f 19/20/4 24/20/4 21/21/4
s 1
f 16/5/3 17/6/3 13/6/3
f 14/13/5 22/15/5 15/15/5
f 15/15/4 23/5/4 16/5/4
f 2/1/1 4/7/1 3/2/1
f 4/1/2 9/7/2 10/2/2
f 8/4/3 6/14/3 16/5/3
f 12/1/4 2/7/4 1/2/4
f 10/3/5 11/1/5 1/7/5
f 4/7/3 2/2/3 12/3/3
f 7/8/6 10/3/6 9/1/6
f 5/10/7 11/2/7 10/3/7
f 8/9/8 9/1/8 12/7/8
f 6/11/9 12/7/9 11/2/9
f 7/12/2 8/4/2 13/6/2
f 6/14/4 5/16/4 15/15/4
f 5/16/5 7/12/5 14/13/5
f 19/17/14 20/19/14 17/18/14
s 0
f 20/19/11 19/17/4 21/17/15
f 23/1/12 24/17/2 18/17/12
f 22/3/16 21/17/4 24/17/17
s 1
f 13/6/2 17/6/2 20/13/2
s 0
f 19/20/4 18/20/4 24/20/4
s 1
f 16/5/3 23/5/3 17/6/3
f 14/13/5 20/13/5 22/15/5
f 15/15/4 22/15/4 23/5/4
