# Blender 5.2.0 LTS
# www.blender.org
mtllib pillar-button.mtl
o Cube
v -0.125000 0.000000 0.125000
v -0.075978 0.691658 0.075000
v -0.125000 0.000000 -0.125000
v -0.075978 0.691658 -0.075000
v 0.125000 0.000000 0.125000
v 0.075978 0.603804 0.075000
v 0.125000 0.000000 -0.125000
v 0.075978 0.603804 -0.075000
v -0.125000 0.720000 0.125000
v -0.125000 0.720000 -0.125000
v 0.125000 0.575461 -0.125000
v 0.125000 0.575461 0.125000
v -0.050952 0.734944 0.075000
v -0.050952 0.734944 -0.075000
v 0.101004 0.647090 -0.075000
v 0.101004 0.647090 0.075000
vn -1.0000 -0.0000 -0.0000
vn -0.0000 -0.0000 -1.0000
vn 1.0000 -0.0000 -0.0000
vn -0.0000 -0.0000 1.0000
vn -0.0000 -1.0000 -0.0000
vn 0.8657 -0.5005 -0.0000
vn 0.5005 0.8657 -0.0000
vn -0.8657 0.5005 -0.0000
vt 0.500000 1.000000
vt -0.000000 0.000000
vt 0.500000 0.000000
vt 0.500000 0.000000
vt 0.000000 0.999252
vt 0.000000 0.000000
vt 0.500000 1.000000
vt 0.500000 0.999252
vt -0.000000 1.000000
vt 0.536278 0.920902
vt 0.901010 0.850597
vt 0.952349 0.941359
vt 0.098044 0.800000
vt 0.098044 0.200000
vt 0.401956 0.800000
vt 0.000000 1.000000
vt 0.401956 0.200000
vt 0.500000 1.000000
vt 0.564103 0.182923
vt 0.589032 0.828026
vt 0.960481 0.058641
vt 0.528685 0.058641
vt 0.925208 0.189779
vt -0.000000 1.000000
s 0
usemtl Material.001
f 9/1/1 3/2/1 1/3/1
f 3/4/2 11/5/2 7/6/2
f 11/7/3 5/2/3 7/3/3
f 12/8/4 1/6/4 5/3/4
f 7/3/5 1/9/5 3/2/5
f 8/10/6 16/11/6 6/12/6
f 4/13/7 9/6/7 2/14/7
f 8/15/7 10/16/7 4/13/7
f 6/17/7 11/18/7 8/15/7
f 2/14/7 12/4/7 6/17/7
f 14/19/7 16/11/7 15/20/7
f 2/21/8 14/19/8 4/22/8
f 6/12/4 13/23/4 2/21/4
f 8/10/2 14/19/2 15/20/2
f 9/1/1 10/9/1 3/2/1
f 3/4/2 10/18/2 11/5/2
f 11/7/3 12/24/3 5/2/3
f 12/8/4 9/16/4 1/6/4
f 7/3/5 5/1/5 1/9/5
f 8/10/6 15/20/6 16/11/6
f 4/13/7 10/16/7 9/6/7
f 8/15/7 11/18/7 10/16/7
f 6/17/7 12/4/7 11/18/7
f 2/14/7 9/6/7 12/4/7
f 14/19/7 13/23/7 16/11/7
f 2/21/8 13/23/8 14/19/8
f 6/12/4 16/11/4 13/23/4
f 8/10/2 4/22/2 14/19/2
